<svg width="888" height="486" viewBox="0 0 888 486" fill="none" xmlns="http://www.w3.org/2000/svg">
<path d="M119.412 253.045H90.9933C89.9941 253.045 89.0357 253.442 88.3291 254.148C87.6225 254.855 87.2256 255.813 87.2256 256.813V269.287C87.2256 270.286 87.6225 271.244 88.3291 271.951C89.0357 272.657 89.9941 273.054 90.9933 273.054H95.7028V291.744H114.703V273.054H119.412C120.411 273.054 121.37 272.657 122.076 271.951C122.783 271.244 123.18 270.286 123.18 269.287V256.813C123.18 255.813 122.783 254.855 122.076 254.148C121.37 253.442 120.411 253.045 119.412 253.045Z" fill="#FCD561"/>
<path d="M147.877 367.206C130.472 341.738 121.575 311.415 122.459 280.581C122.474 279.87 122.244 279.175 121.805 278.614C121.367 278.054 120.748 277.662 120.053 277.506V272.116H90.0394V277.431H89.6258C89.2025 277.432 88.7838 277.52 88.396 277.689C88.0081 277.859 87.6594 278.107 87.3715 278.417C87.0837 278.728 86.863 279.094 86.7231 279.494C86.5832 279.893 86.5272 280.317 86.5586 280.739C88.9231 313.701 80.9386 343.26 62.605 369.416C61.55 370.919 61.011 372.724 61.0689 374.56L64.3508 476.078C64.4297 478.342 65.38 480.489 67.0035 482.069C68.627 483.65 70.7982 484.542 73.0638 484.56H140.951C143.243 484.541 145.436 483.629 147.065 482.016C148.693 480.404 149.628 478.22 149.669 475.928L150.934 377.362C150.972 373.745 149.905 370.202 147.877 367.206Z" fill="#6254BF"/>
<path opacity="0.2" d="M113.488 257.109C113.488 259.265 112.631 261.333 111.107 262.857C109.583 264.382 107.515 265.238 105.359 265.238C103.203 265.238 101.136 264.382 99.6111 262.857C98.0867 261.333 97.2302 259.265 97.2302 257.109" fill="black"/>
<path d="M137.13 400.927H128.909C128.125 395.834 125.543 391.191 121.632 387.836C117.72 384.481 112.738 382.637 107.585 382.637C102.432 382.637 97.4494 384.481 93.5381 387.836C89.6269 391.191 87.0454 395.834 86.2605 400.927H78.0394C77.1647 400.927 76.3003 401.116 75.5056 401.481C74.7108 401.847 74.0045 402.38 73.4349 403.043C72.8654 403.707 72.4462 404.486 72.2059 405.328C71.9657 406.169 71.9102 407.052 72.0432 407.916L80.9726 465.957H132.247L143.093 408.112C143.257 407.235 143.226 406.334 143.003 405.471C142.779 404.608 142.368 403.805 141.798 403.119C141.229 402.433 140.516 401.881 139.709 401.502C138.902 401.123 138.021 400.927 137.13 400.927Z" fill="#FCD561"/>
<path d="M827.952 307.634L825.98 386.448L823.538 484.181H740.414L737.552 369.675L736 307.634H827.952Z" fill="#E6E6E6"/>
<path d="M787.493 265.704H775.723V421.654H787.493V265.704Z" fill="#F9A826"/>
<path d="M822.067 367.02L819.841 479.04H744.074L741.466 347.796C748.292 345.879 755.439 345.388 762.464 346.354C769.488 347.32 776.237 349.723 782.292 353.412C794.952 360.899 809.173 364.929 822.067 367.02Z" fill="#6254BF"/>
<path d="M762.831 379.63H752.031V390.43H762.831V379.63Z" fill="#E6E6E6"/>
<path d="M770.187 357.562H759.387V368.362H770.187V357.562Z" fill="#E6E6E6"/>
<path d="M793.378 372.84L784.703 366.406L778.27 375.081L786.944 381.514L793.378 372.84Z" fill="#E6E6E6"/>
<path d="M812.891 391.975L804.216 385.542L797.783 394.216L806.457 400.65L812.891 391.975Z" fill="#E6E6E6"/>
<path d="M779.788 403.009L771.114 396.576L764.68 405.251L773.355 411.684L779.788 403.009Z" fill="#E6E6E6"/>
<path d="M805.148 353.242C806.366 353.242 807.354 352.254 807.354 351.035C807.354 349.816 806.366 348.828 805.148 348.828C803.929 348.828 802.941 349.816 802.941 351.035C802.941 352.254 803.929 353.242 805.148 353.242Z" fill="#3F3D56"/>
<path d="M760.275 338.53C761.494 338.53 762.482 337.542 762.482 336.323C762.482 335.104 761.494 334.116 760.275 334.116C759.056 334.116 758.068 335.104 758.068 336.323C758.068 337.542 759.056 338.53 760.275 338.53Z" fill="#3F3D56"/>
<path d="M797.792 323.082C799.01 323.082 799.998 322.094 799.998 320.875C799.998 319.656 799.01 318.668 797.792 318.668C796.573 318.668 795.585 319.656 795.585 320.875C795.585 322.094 796.573 323.082 797.792 323.082Z" fill="#3F3D56"/>
<path d="M444.508 483.508C578.025 483.508 686.262 375.271 686.262 241.754C686.262 108.237 578.025 0 444.508 0C310.991 0 202.754 108.237 202.754 241.754C202.754 375.271 310.991 483.508 444.508 483.508Z" fill="#FCD561"/>
<path opacity="0.2" d="M444.508 418.211C403.684 418.211 364.123 404.055 332.566 378.157C301.009 352.258 279.408 316.219 271.444 276.179C263.479 236.14 269.645 194.577 288.889 158.574C308.134 122.57 339.267 94.3535 376.983 78.7309C414.699 63.1084 456.666 61.0468 495.732 72.8975C534.798 84.7482 568.547 109.778 591.227 143.722C613.908 177.666 624.117 218.424 620.115 259.051C616.114 299.678 598.149 337.661 569.282 366.528C552.935 382.965 533.49 395.996 512.072 404.868C490.655 413.739 467.69 418.274 444.508 418.211ZM444.508 76.1798C353.21 76.1798 278.934 150.456 278.934 241.754C278.934 333.052 353.21 407.328 444.508 407.328C535.806 407.328 610.082 333.052 610.082 241.754C610.082 150.456 535.806 76.1798 444.508 76.1798Z" fill="black"/>
<path d="M444.508 412.77C538.958 412.77 615.524 336.203 615.524 241.754C615.524 147.305 538.958 70.7383 444.508 70.7383C350.059 70.7383 273.492 147.305 273.492 241.754C273.492 336.203 350.059 412.77 444.508 412.77Z" fill="#6254BF"/>
<path d="M317.327 173.372C316.03 170.832 315.247 168.061 315.021 165.218C314.796 162.374 315.133 159.515 316.014 156.802C316.894 154.089 318.301 151.576 320.153 149.407C322.005 147.239 324.267 145.456 326.809 144.162C329.35 142.868 332.122 142.087 334.965 141.865C337.809 141.642 340.668 141.982 343.38 142.866C346.092 143.749 348.603 145.158 350.77 147.013C352.937 148.867 354.717 151.131 356.009 153.674L404.325 248.552C405.622 251.092 406.405 253.863 406.631 256.706C406.856 259.55 406.519 262.409 405.638 265.122C404.758 267.835 403.351 270.348 401.499 272.516C399.647 274.685 397.385 276.468 394.844 277.762C392.302 279.056 389.531 279.837 386.687 280.059C383.844 280.282 380.984 279.942 378.272 279.058C375.56 278.175 373.049 276.766 370.882 274.911C368.715 273.057 366.935 270.793 365.644 268.25L317.327 173.372Z" fill="#FF6584"/>
<path opacity="0.2" d="M322.717 183.954L320.487 179.576C331.616 170.928 344.684 164.569 359.168 159.877L361.398 164.256C345.722 167.521 332.386 173.561 322.717 183.954Z" fill="black"/>
<path opacity="0.2" d="M333.123 204.39L330.893 200.011C342.022 191.363 355.091 185.004 369.574 180.313L371.804 184.692C356.129 187.956 342.793 193.997 333.123 204.39Z" fill="black"/>
<path opacity="0.2" d="M343.53 224.825L341.3 220.446C352.429 211.799 365.498 205.439 379.981 200.748L382.211 205.127C366.536 208.391 353.199 214.432 343.53 224.825Z" fill="black"/>
<path opacity="0.2" d="M353.936 245.261L351.706 240.882C362.835 232.234 375.904 225.875 390.387 221.183L392.617 225.562C376.942 228.827 363.606 234.868 353.936 245.261Z" fill="black"/>
<path opacity="0.2" d="M364.343 265.696L362.113 261.317C373.242 252.669 386.311 246.31 400.794 241.619L403.024 245.998C387.349 249.262 374.012 255.303 364.343 265.696Z" fill="black"/>
<path d="M281.079 208.891C279.782 206.351 278.999 203.58 278.774 200.737C278.549 197.894 278.886 195.034 279.767 192.322C280.648 189.609 282.054 187.097 283.906 184.928C285.758 182.759 288.02 180.977 290.561 179.683C293.103 178.389 295.874 177.608 298.717 177.386C301.561 177.163 304.42 177.503 307.132 178.386C309.843 179.27 312.354 180.679 314.521 182.533C316.688 184.387 318.468 186.65 319.76 189.193L368.077 284.071C370.681 289.2 371.144 295.153 369.362 300.622C367.581 306.092 363.701 310.63 358.575 313.24C353.449 315.851 347.496 316.319 342.025 314.544C336.554 312.768 332.011 308.892 329.395 303.769L281.079 208.891Z" fill="#FF6584"/>
<path opacity="0.2" d="M286.468 219.474L284.238 215.095C295.367 206.447 308.436 200.088 322.919 195.396L325.149 199.775C309.474 203.04 296.138 209.081 286.468 219.474Z" fill="black"/>
<path opacity="0.2" d="M296.875 239.909L294.645 235.53C305.774 226.882 318.843 220.523 333.326 215.832L335.556 220.211C319.881 223.475 306.544 229.516 296.875 239.909Z" fill="black"/>
<path opacity="0.2" d="M307.281 260.344L305.051 255.965C316.18 247.318 329.249 240.958 343.732 236.267L345.962 240.646C330.287 243.91 316.951 249.951 307.281 260.344Z" fill="black"/>
<path opacity="0.2" d="M317.688 280.78L315.458 276.401C326.587 267.753 339.656 261.394 354.139 256.702L356.369 261.081C340.694 264.346 327.358 270.387 317.688 280.78Z" fill="black"/>
<path opacity="0.2" d="M328.095 301.215L325.865 296.836C336.994 288.189 350.062 281.829 364.546 277.138L366.776 281.517C351.1 284.781 337.764 290.822 328.095 301.215Z" fill="black"/>
<path d="M558.778 247.195L558.93 247.196C564.134 247.239 569.231 245.713 573.555 242.817C577.879 239.921 581.229 235.788 583.169 230.959C587.16 220.873 589.171 210.112 589.092 199.265C588.821 153.355 551.47 115.69 505.563 115.055C486.012 114.781 466.968 121.277 451.659 133.44C436.35 145.604 425.718 162.687 421.566 181.794C417.414 200.9 419.996 220.855 428.875 238.276C437.755 255.696 452.385 269.51 470.286 277.375C475.017 279.47 480.27 280.086 485.357 279.143C490.444 278.199 495.127 275.741 498.792 272.09C506.653 264.187 516.001 257.919 526.296 253.646C536.592 249.373 547.631 247.181 558.778 247.195Z" fill="#E6E6E6"/>
<path d="M515.246 221.543C530.702 221.543 543.231 209.014 543.231 193.559C543.231 178.103 530.702 165.574 515.246 165.574C499.791 165.574 487.262 178.103 487.262 193.559C487.262 209.014 499.791 221.543 515.246 221.543Z" fill="#F9A825"/>
<path d="M454.426 190.412C456.247 190.412 457.723 188.936 457.723 187.115C457.723 185.294 456.247 183.818 454.426 183.818C452.606 183.818 451.13 185.294 451.13 187.115C451.13 188.936 452.606 190.412 454.426 190.412Z" fill="#3F3D56"/>
<path d="M345.598 193.521C347.419 193.521 348.895 192.045 348.895 190.225C348.895 188.404 347.419 186.928 345.598 186.928C343.777 186.928 342.301 188.404 342.301 190.225C342.301 192.045 343.777 193.521 345.598 193.521Z" fill="#3F3D56"/>
<path d="M471.996 156.246C473.817 156.246 475.293 154.77 475.293 152.95C475.293 151.129 473.817 149.653 471.996 149.653C470.175 149.653 468.699 151.129 468.699 152.95C468.699 154.77 470.175 156.246 471.996 156.246Z" fill="#3F3D56"/>
<path d="M471.902 251.269C473.723 251.269 475.199 249.793 475.199 247.973C475.199 246.152 473.723 244.676 471.902 244.676C470.082 244.676 468.606 246.152 468.606 247.973C468.606 249.793 470.082 251.269 471.902 251.269Z" fill="#3F3D56"/>
<path d="M537.199 149.437C539.02 149.437 540.496 147.961 540.496 146.141C540.496 144.32 539.02 142.844 537.199 142.844C535.379 142.844 533.903 144.32 533.903 146.141C533.903 147.961 535.379 149.437 537.199 149.437Z" fill="#3F3D56"/>
<path d="M324.207 239.609C326.028 239.609 327.504 238.133 327.504 236.313C327.504 234.492 326.028 233.016 324.207 233.016C322.386 233.016 320.91 234.492 320.91 236.313C320.91 238.133 322.386 239.609 324.207 239.609Z" fill="#3F3D56"/>
<path d="M348.305 287.027C350.125 287.027 351.601 285.551 351.601 283.731C351.601 281.91 350.125 280.434 348.305 280.434C346.484 280.434 345.008 281.91 345.008 283.731C345.008 285.551 346.484 287.027 348.305 287.027Z" fill="#3F3D56"/>
<path d="M499.699 302.387C506.569 302.387 512.137 296.818 512.137 289.949C512.137 283.08 506.569 277.512 499.699 277.512C492.83 277.512 487.262 283.08 487.262 289.949C487.262 296.818 492.83 302.387 499.699 302.387Z" fill="#FF6584"/>
<path opacity="0.2" d="M509.028 290.727C509.028 293.201 508.045 295.573 506.295 297.323C504.546 299.072 502.173 300.055 499.699 300.055C497.225 300.055 494.853 299.072 493.103 297.323C491.354 295.573 490.371 293.201 490.371 290.727" fill="black"/>
<path opacity="0.2" d="M490.371 289.172C490.371 286.698 491.354 284.325 493.103 282.576C494.853 280.827 497.225 279.844 499.699 279.844C502.173 279.844 504.546 280.827 506.295 282.576C508.045 284.325 509.028 286.698 509.028 289.172" fill="black"/>
<path d="M495.035 286.84C495.465 286.84 495.813 286.318 495.813 285.674C495.813 285.03 495.465 284.508 495.035 284.508C494.606 284.508 494.258 285.03 494.258 285.674C494.258 286.318 494.606 286.84 495.035 286.84Z" fill="#FF6584"/>
<path d="M499.699 285.285C500.129 285.285 500.477 284.763 500.477 284.119C500.477 283.475 500.129 282.953 499.699 282.953C499.27 282.953 498.922 283.475 498.922 284.119C498.922 284.763 499.27 285.285 499.699 285.285Z" fill="#FF6584"/>
<path d="M499.699 295.391C500.129 295.391 500.477 294.869 500.477 294.225C500.477 293.581 500.129 293.059 499.699 293.059C499.27 293.059 498.922 293.581 498.922 294.225C498.922 294.869 499.27 295.391 499.699 295.391Z" fill="#FF6584"/>
<path d="M504.363 289.172C504.793 289.172 505.141 288.65 505.141 288.006C505.141 287.362 504.793 286.84 504.363 286.84C503.934 286.84 503.586 287.362 503.586 288.006C503.586 288.65 503.934 289.172 504.363 289.172Z" fill="#FF6584"/>
<path d="M503.586 297.723C504.015 297.723 504.363 297.201 504.363 296.557C504.363 295.913 504.015 295.391 503.586 295.391C503.157 295.391 502.809 295.913 502.809 296.557C502.809 297.201 503.157 297.723 503.586 297.723Z" fill="#FF6584"/>
<path d="M494.258 293.836C494.687 293.836 495.035 293.314 495.035 292.67C495.035 292.026 494.687 291.504 494.258 291.504C493.829 291.504 493.481 292.026 493.481 292.67C493.481 293.314 493.829 293.836 494.258 293.836Z" fill="#FF6584"/>
<path d="M524.574 268.961C531.444 268.961 537.012 263.393 537.012 256.524C537.012 249.655 531.444 244.086 524.574 244.086C517.705 244.086 512.137 249.655 512.137 256.524C512.137 263.393 517.705 268.961 524.574 268.961Z" fill="#FF6584"/>
<path opacity="0.2" d="M533.903 257.301C533.903 259.775 532.92 262.148 531.17 263.897C529.421 265.646 527.048 266.629 524.574 266.629C522.1 266.629 519.728 265.646 517.978 263.897C516.229 262.148 515.246 259.775 515.246 257.301" fill="black"/>
<path opacity="0.2" d="M515.246 255.746C515.246 253.272 516.229 250.9 517.978 249.15C519.728 247.401 522.1 246.418 524.574 246.418C527.048 246.418 529.421 247.401 531.17 249.15C532.92 250.9 533.903 253.272 533.903 255.746" fill="black"/>
<path d="M519.91 253.414C520.34 253.414 520.688 252.892 520.688 252.248C520.688 251.604 520.34 251.082 519.91 251.082C519.481 251.082 519.133 251.604 519.133 252.248C519.133 252.892 519.481 253.414 519.91 253.414Z" fill="#FF6584"/>
<path d="M524.574 251.859C525.004 251.859 525.352 251.337 525.352 250.693C525.352 250.05 525.004 249.527 524.574 249.527C524.145 249.527 523.797 250.05 523.797 250.693C523.797 251.337 524.145 251.859 524.574 251.859Z" fill="#FF6584"/>
<path d="M524.574 261.965C525.004 261.965 525.352 261.443 525.352 260.799C525.352 260.155 525.004 259.633 524.574 259.633C524.145 259.633 523.797 260.155 523.797 260.799C523.797 261.443 524.145 261.965 524.574 261.965Z" fill="#FF6584"/>
<path d="M529.239 255.746C529.668 255.746 530.016 255.224 530.016 254.58C530.016 253.936 529.668 253.414 529.239 253.414C528.809 253.414 528.461 253.936 528.461 254.58C528.461 255.224 528.809 255.746 529.239 255.746Z" fill="#FF6584"/>
<path d="M528.461 264.297C528.89 264.297 529.239 263.775 529.239 263.131C529.239 262.487 528.89 261.965 528.461 261.965C528.032 261.965 527.684 262.487 527.684 263.131C527.684 263.775 528.032 264.297 528.461 264.297Z" fill="#FF6584"/>
<path d="M519.133 260.41C519.562 260.41 519.91 259.888 519.91 259.244C519.91 258.6 519.562 258.078 519.133 258.078C518.704 258.078 518.356 258.6 518.356 259.244C518.356 259.888 518.704 260.41 519.133 260.41Z" fill="#FF6584"/>
<path d="M549.449 286.063C556.319 286.063 561.887 280.494 561.887 273.625C561.887 266.756 556.319 261.188 549.449 261.188C542.58 261.188 537.012 266.756 537.012 273.625C537.012 280.494 542.58 286.063 549.449 286.063Z" fill="#F9A826"/>
<path opacity="0.2" d="M558.778 274.402C558.778 276.876 557.795 279.249 556.045 280.998C554.296 282.748 551.923 283.731 549.449 283.731C546.975 283.731 544.603 282.748 542.853 280.998C541.104 279.249 540.121 276.876 540.121 274.402" fill="black"/>
<path opacity="0.2" d="M540.121 272.848C540.121 270.374 541.104 268.001 542.853 266.252C544.603 264.502 546.975 263.52 549.449 263.52C551.923 263.52 554.296 264.502 556.045 266.252C557.795 268.001 558.778 270.374 558.778 272.848" fill="black"/>
<path d="M544.785 270.516C545.215 270.516 545.563 269.994 545.563 269.35C545.563 268.706 545.215 268.184 544.785 268.184C544.356 268.184 544.008 268.706 544.008 269.35C544.008 269.994 544.356 270.516 544.785 270.516Z" fill="#F9A826"/>
<path d="M549.449 268.961C549.879 268.961 550.227 268.439 550.227 267.795C550.227 267.151 549.879 266.629 549.449 266.629C549.02 266.629 548.672 267.151 548.672 267.795C548.672 268.439 549.02 268.961 549.449 268.961Z" fill="#F9A826"/>
<path d="M549.449 279.067C549.879 279.067 550.227 278.544 550.227 277.901C550.227 277.257 549.879 276.734 549.449 276.734C549.02 276.734 548.672 277.257 548.672 277.901C548.672 278.544 549.02 279.067 549.449 279.067Z" fill="#F9A826"/>
<path d="M554.114 272.848C554.543 272.848 554.891 272.326 554.891 271.682C554.891 271.038 554.543 270.516 554.114 270.516C553.684 270.516 553.336 271.038 553.336 271.682C553.336 272.326 553.684 272.848 554.114 272.848Z" fill="#F9A826"/>
<path d="M553.336 281.399C553.765 281.399 554.114 280.877 554.114 280.233C554.114 279.589 553.765 279.067 553.336 279.067C552.907 279.067 552.559 279.589 552.559 280.233C552.559 280.877 552.907 281.399 553.336 281.399Z" fill="#F9A826"/>
<path d="M544.008 277.512C544.437 277.512 544.785 276.99 544.785 276.346C544.785 275.702 544.437 275.18 544.008 275.18C543.579 275.18 543.231 275.702 543.231 276.346C543.231 276.99 543.579 277.512 544.008 277.512Z" fill="#F9A826"/>
<path d="M487.262 287.617C494.131 287.617 499.699 282.049 499.699 275.18C499.699 268.311 494.131 262.742 487.262 262.742C480.393 262.742 474.824 268.311 474.824 275.18C474.824 282.049 480.393 287.617 487.262 287.617Z" fill="#F9A826"/>
<path opacity="0.2" d="M496.59 275.957C496.59 278.431 495.607 280.804 493.858 282.553C492.109 284.303 489.736 285.285 487.262 285.285C484.788 285.285 482.415 284.303 480.666 282.553C478.917 280.804 477.934 278.431 477.934 275.957" fill="black"/>
<path opacity="0.2" d="M477.934 274.402C477.934 271.928 478.917 269.556 480.666 267.806C482.415 266.057 484.788 265.074 487.262 265.074C489.736 265.074 492.109 266.057 493.858 267.806C495.607 269.556 496.59 271.928 496.59 274.402" fill="black"/>
<path d="M482.598 272.07C483.027 272.07 483.375 271.548 483.375 270.904C483.375 270.26 483.027 269.738 482.598 269.738C482.169 269.738 481.821 270.26 481.821 270.904C481.821 271.548 482.169 272.07 482.598 272.07Z" fill="#F9A826"/>
<path d="M487.262 270.516C487.691 270.516 488.039 269.994 488.039 269.35C488.039 268.706 487.691 268.184 487.262 268.184C486.833 268.184 486.485 268.706 486.485 269.35C486.485 269.994 486.833 270.516 487.262 270.516Z" fill="#F9A826"/>
<path d="M487.262 280.621C487.691 280.621 488.039 280.099 488.039 279.455C488.039 278.811 487.691 278.289 487.262 278.289C486.833 278.289 486.485 278.811 486.485 279.455C486.485 280.099 486.833 280.621 487.262 280.621Z" fill="#F9A826"/>
<path d="M491.926 274.402C492.355 274.402 492.703 273.88 492.703 273.236C492.703 272.592 492.355 272.07 491.926 272.07C491.497 272.07 491.149 272.592 491.149 273.236C491.149 273.88 491.497 274.402 491.926 274.402Z" fill="#F9A826"/>
<path d="M491.149 282.953C491.578 282.953 491.926 282.431 491.926 281.787C491.926 281.143 491.578 280.621 491.149 280.621C490.719 280.621 490.371 281.143 490.371 281.787C490.371 282.431 490.719 282.953 491.149 282.953Z" fill="#F9A826"/>
<path d="M481.821 279.067C482.25 279.067 482.598 278.544 482.598 277.901C482.598 277.257 482.25 276.734 481.821 276.734C481.391 276.734 481.043 277.257 481.043 277.901C481.043 278.544 481.391 279.067 481.821 279.067Z" fill="#F9A826"/>
<path d="M515.246 293.059C522.115 293.059 527.684 287.49 527.684 280.621C527.684 273.752 522.115 268.184 515.246 268.184C508.377 268.184 502.809 273.752 502.809 280.621C502.809 287.49 508.377 293.059 515.246 293.059Z" fill="#F9A826"/>
<path opacity="0.2" d="M524.574 281.399C524.574 282.624 524.333 283.837 523.864 284.968C523.396 286.1 522.708 287.128 521.842 287.995C520.976 288.861 519.948 289.548 518.816 290.017C517.684 290.485 516.471 290.727 515.246 290.727C514.021 290.727 512.808 290.485 511.677 290.017C510.545 289.548 509.517 288.861 508.65 287.995C507.784 287.128 507.097 286.1 506.628 284.968C506.159 283.837 505.918 282.624 505.918 281.399" fill="black"/>
<path opacity="0.2" d="M505.918 279.844C505.918 278.619 506.159 277.406 506.628 276.274C507.097 275.142 507.784 274.114 508.65 273.248C509.517 272.382 510.545 271.695 511.677 271.226C512.808 270.757 514.021 270.516 515.246 270.516C516.471 270.516 517.684 270.757 518.816 271.226C519.948 271.695 520.976 272.382 521.842 273.248C522.708 274.114 523.396 275.142 523.864 276.274C524.333 277.406 524.574 278.619 524.574 279.844" fill="black"/>
<path d="M510.582 277.512C511.012 277.512 511.36 276.99 511.36 276.346C511.36 275.702 511.012 275.18 510.582 275.18C510.153 275.18 509.805 275.702 509.805 276.346C509.805 276.99 510.153 277.512 510.582 277.512Z" fill="#F9A826"/>
<path d="M515.246 275.957C515.676 275.957 516.024 275.435 516.024 274.791C516.024 274.147 515.676 273.625 515.246 273.625C514.817 273.625 514.469 274.147 514.469 274.791C514.469 275.435 514.817 275.957 515.246 275.957Z" fill="#F9A826"/>
<path d="M515.246 286.063C515.676 286.063 516.024 285.541 516.024 284.897C516.024 284.253 515.676 283.731 515.246 283.731C514.817 283.731 514.469 284.253 514.469 284.897C514.469 285.541 514.817 286.063 515.246 286.063Z" fill="#F9A826"/>
<path d="M519.91 279.844C520.34 279.844 520.688 279.322 520.688 278.678C520.688 278.034 520.34 277.512 519.91 277.512C519.481 277.512 519.133 278.034 519.133 278.678C519.133 279.322 519.481 279.844 519.91 279.844Z" fill="#F9A826"/>
<path d="M519.133 288.395C519.562 288.395 519.91 287.873 519.91 287.229C519.91 286.585 519.562 286.063 519.133 286.063C518.704 286.063 518.356 286.585 518.356 287.229C518.356 287.873 518.704 288.395 519.133 288.395Z" fill="#F9A826"/>
<path d="M509.805 284.508C510.234 284.508 510.582 283.986 510.582 283.342C510.582 282.698 510.234 282.176 509.805 282.176C509.376 282.176 509.028 282.698 509.028 283.342C509.028 283.986 509.376 284.508 509.805 284.508Z" fill="#F9A826"/>
<path d="M534.68 306.274C541.549 306.274 547.117 300.705 547.117 293.836C547.117 286.967 541.549 281.399 534.68 281.399C527.811 281.399 522.242 286.967 522.242 293.836C522.242 300.705 527.811 306.274 534.68 306.274Z" fill="#FF6584"/>
<path opacity="0.2" d="M544.008 294.613C544.008 297.087 543.025 299.46 541.276 301.209C539.527 302.959 537.154 303.942 534.68 303.942C532.206 303.942 529.833 302.959 528.084 301.209C526.335 299.46 525.352 297.087 525.352 294.613" fill="black"/>
<path opacity="0.2" d="M525.352 293.059C525.352 290.585 526.335 288.212 528.084 286.463C529.833 284.713 532.206 283.731 534.68 283.731C537.154 283.731 539.527 284.713 541.276 286.463C543.025 288.212 544.008 290.585 544.008 293.059" fill="black"/>
<path d="M530.016 290.727C530.445 290.727 530.793 290.205 530.793 289.561C530.793 288.917 530.445 288.395 530.016 288.395C529.587 288.395 529.239 288.917 529.239 289.561C529.239 290.205 529.587 290.727 530.016 290.727Z" fill="#FF6584"/>
<path d="M534.68 289.172C535.109 289.172 535.457 288.65 535.457 288.006C535.457 287.362 535.109 286.84 534.68 286.84C534.251 286.84 533.903 287.362 533.903 288.006C533.903 288.65 534.251 289.172 534.68 289.172Z" fill="#FF6584"/>
<path d="M534.68 299.277C535.109 299.277 535.457 298.755 535.457 298.111C535.457 297.467 535.109 296.945 534.68 296.945C534.251 296.945 533.903 297.467 533.903 298.111C533.903 298.755 534.251 299.277 534.68 299.277Z" fill="#FF6584"/>
<path d="M539.344 293.059C539.773 293.059 540.121 292.537 540.121 291.893C540.121 291.249 539.773 290.727 539.344 290.727C538.915 290.727 538.567 291.249 538.567 291.893C538.567 292.537 538.915 293.059 539.344 293.059Z" fill="#FF6584"/>
<path d="M538.567 301.61C538.996 301.61 539.344 301.087 539.344 300.444C539.344 299.8 538.996 299.277 538.567 299.277C538.137 299.277 537.789 299.8 537.789 300.444C537.789 301.087 538.137 301.61 538.567 301.61Z" fill="#FF6584"/>
<path d="M529.239 297.723C529.668 297.723 530.016 297.201 530.016 296.557C530.016 295.913 529.668 295.391 529.239 295.391C528.809 295.391 528.461 295.913 528.461 296.557C528.461 297.201 528.809 297.723 529.239 297.723Z" fill="#FF6584"/>
<path d="M374.734 249.715C376.555 249.715 378.031 248.239 378.031 246.418C378.031 244.597 376.555 243.121 374.734 243.121C372.914 243.121 371.438 244.597 371.438 246.418C371.438 248.239 372.914 249.715 374.734 249.715Z" fill="#3F3D56"/>
<path d="M464.345 366.08L385.17 344.123L388.203 332.857L467.378 354.815L464.345 366.08Z" fill="#F9A825"/>
<path d="M452.738 362.315C425.625 367.505 397.773 367.505 370.66 362.315V350.637C397.834 355.14 425.564 355.14 452.738 350.637V362.315Z" fill="#F9A825"/>
<path d="M461.176 327.28C434.063 332.47 406.211 332.47 379.098 327.28V315.602C406.272 320.106 434.002 320.106 461.176 315.602V327.28Z" fill="#F9A825"/>
<path d="M489.558 341.294C462.445 346.484 434.594 346.484 407.48 341.294V329.616C434.654 334.119 462.384 334.119 489.558 329.616V341.294Z" fill="#F9A825"/>
<path d="M496.462 354.529C469.349 359.72 441.497 359.72 414.384 354.529V342.851C441.558 347.355 469.288 347.355 496.462 342.851V354.529Z" fill="#F9A825"/>
<path d="M520.531 371.824L439.554 385.426L437.676 373.904L518.652 360.302L520.531 371.824Z" fill="#F9A825"/>
<path d="M508.435 373.321C485.984 389.504 460.682 401.306 433.855 408.106L429.05 397.494C455.642 390.048 480.836 378.298 503.63 362.71L508.435 373.321Z" fill="#F9A825"/>
<path d="M501.689 337.911C479.238 354.094 453.935 365.895 427.109 372.695L422.304 362.084C448.896 354.638 474.09 342.887 496.884 327.299L501.689 337.911Z" fill="#F9A825"/>
<path d="M533.243 338.616C510.793 354.8 485.49 366.601 458.663 373.401L453.859 362.789C480.451 355.343 505.644 343.593 528.439 328.005L533.243 338.616Z" fill="#F9A825"/>
<path d="M544.962 347.717C522.511 363.9 497.208 375.701 470.382 382.501L465.577 371.89C492.169 364.444 517.362 352.693 540.157 337.105L544.962 347.717Z" fill="#F9A825"/>
<path d="M446.84 324.93H442.953V328.817H446.84V324.93Z" fill="#00BF71"/>
<path d="M458.5 392.559H454.614V396.446H458.5V392.559Z" fill="#00BF71"/>
<path d="M396.313 324.93H392.426V328.817H396.313V324.93Z" fill="#00BF71"/>
<path d="M486.485 373.125H482.598V377.012H486.485V373.125Z" fill="#00BF71"/>
<path d="M488.817 350.582H484.93V354.469H488.817V350.582Z" fill="#00BF71"/>
<path d="M424.701 339.94L420.198 336.885L418.452 339.458L422.955 342.513L424.701 339.94Z" fill="#00BF71"/>
<path d="M470.564 348.491L466.061 345.436L464.315 348.009L468.818 351.064L470.564 348.491Z" fill="#00BF71"/>
<path d="M414.595 363.261L410.092 360.206L408.347 362.779L412.849 365.834L414.595 363.261Z" fill="#00BF71"/>
<path d="M443.101 363.035L446.156 358.532L443.583 356.786L440.528 361.289L443.101 363.035Z" fill="#00BF71"/>
<path d="M464.089 368.476L467.144 363.973L464.571 362.227L461.516 366.73L464.089 368.476Z" fill="#00BF71"/>
<path d="M520.063 349.819L523.118 345.316L520.545 343.57L517.49 348.073L520.063 349.819Z" fill="#00BF71"/>
</svg>
