<svg xmlns="http://www.w3.org/2000/svg" xmlns:xlink="http://www.w3.org/1999/xlink" aria-hidden="true" focusable="false" width="1em" height="1em" style="-ms-transform: rotate(360deg); -webkit-transform: rotate(360deg); transform: rotate(360deg);" preserveAspectRatio="xMidYMid meet" viewBox="0 0 36 36"><path d="M33.62 17.53c-3.37-6.23-9.28-10-15.82-10S5.34 11.3 2 17.53l-.28.47l.26.48c3.37 6.23 9.28 10 15.82 10s12.46-3.72 15.82-10l.26-.48zm-15.82 8.9C12.17 26.43 7 23.29 4 18c3-5.29 8.17-8.43 13.8-8.43S28.54 12.72 31.59 18c-3.05 5.29-8.17 8.43-13.79 8.43z" class="clr-i-outline clr-i-outline-path-1" fill="currentColor"/><path d="M18.09 11.17A6.86 6.86 0 1 0 25 18a6.86 6.86 0 0 0-6.91-6.83zm0 11.72A4.86 4.86 0 1 1 23 18a4.87 4.87 0 0 1-4.91 4.89z" class="clr-i-outline clr-i-outline-path-2" fill="currentColor"/></svg>
