<svg xmlns="http://www.w3.org/2000/svg" xmlns:xlink="http://www.w3.org/1999/xlink" aria-hidden="true" focusable="false" width="1em" height="1em" style="-ms-transform: rotate(360deg); -webkit-transform: rotate(360deg); transform: rotate(360deg);" preserveAspectRatio="xMidYMid meet" viewBox="0 0 24 24"><path d="M16.092 10.02l-2.829-2.828l4.243-4.242a1 1 0 0 1 1.414 0l1.415 1.414a1 1 0 0 1 0 1.414l-4.243 4.243zm-1.414 1.415l-9.9 9.9a1 1 0 0 1-1.414 0L1.95 19.92a1 1 0 0 1 0-1.414l9.9-9.9l2.828 2.829zm-4.95-9.192l1.393.704l1.435-.704l-.679 1.46l.68 1.368l-1.384-.664l-1.445.664l.689-1.42l-.69-1.408zm9.9 7.07l1.393.705l1.435-.704l-.68 1.46l.68 1.368l-1.384-.664l-1.445.664l.69-1.42l-.69-1.408z" fill="currentColor"/></svg>
