<svg xmlns="http://www.w3.org/2000/svg" xmlns:xlink="http://www.w3.org/1999/xlink" aria-hidden="true" focusable="false" width="1em" height="1em" style="-ms-transform: rotate(360deg); -webkit-transform: rotate(360deg); transform: rotate(360deg);" preserveAspectRatio="xMidYMid meet" viewBox="0 0 1000 1000"><path d="M182.594 0C81.445 0 0 81.445 0 182.594v634.813c0 101.149 81.445 182.594 182.594 182.594h344.063V609.063H423.282v-140.75h103.375v-120.25c0-94.475 61.079-181.219 201.781-181.219c56.968 0 99.094 5.469 99.094 5.469l-3.313 131.438s-42.963-.406-89.844-.406c-50.739 0-58.875 23.378-58.875 62.188v102.781h152.75l-6.656 140.75H675.5v390.938h141.906c101.149 0 182.594-81.445 182.594-182.594V182.595C1000 81.446 918.555.001 817.406.001H182.593z" fill="currentColor"/></svg>
