<svg width="115" height="56" viewBox="0 0 115 56" fill="none" xmlns="http://www.w3.org/2000/svg">
<path fill-rule="evenodd" clip-rule="evenodd" d="M8 0C3.58167 0 0 3.58173 0 8V48C0 52.4183 3.58167 56 8 56H107C111.418 56 115 52.4183 115 48V8C115 3.58173 111.418 0 107 0H8ZM28.5703 9.875L23.8359 27.2188L30.0938 28.7422C31.1562 27.5859 32.5391 27.0078 34.2422 27.0078C35.5703 27.0078 36.5469 27.4609 37.1719 28.3672C37.7969 29.2578 38.0312 30.5703 37.875 32.3047C37.6406 34.3672 37.1016 35.9062 36.2578 36.9219C35.4141 37.9219 34.3516 38.3984 33.0703 38.3516C32.0234 38.3203 31.2109 37.9375 30.6328 37.2031C30.0547 36.4688 29.75 35.4922 29.7188 34.2734H22.0312C22.0156 36.1797 22.4609 37.9062 23.3672 39.4531C24.2734 40.9844 25.5469 42.1953 27.1875 43.0859C28.8438 43.9766 30.6797 44.4453 32.6953 44.4922C36.1328 44.5547 39.0625 43.5 41.4844 41.3281C43.9062 39.1406 45.2578 36.3125 45.5391 32.8438C45.8203 29.4844 45.1484 26.7656 43.5234 24.6875C41.9141 22.6094 39.6094 21.5703 36.6094 21.5703C34.7344 21.6016 33.1641 22.0234 31.8984 22.8359L33.9844 16.0156H47.0391L48.0234 9.875H28.5703ZM76.4531 32.1406L80.25 9.875H72.2344L68.4375 32.1641C67.7344 36.2578 65.6641 38.25 62.2266 38.1406C61.0391 38.0938 60.1172 37.75 59.4609 37.1094C58.8203 36.4688 58.4609 35.5703 58.3828 34.4141C58.3203 33.7109 58.3359 32.9688 58.4297 32.1875L62.2031 9.875H54.1406L50.3438 32.1641C50.0625 34.5547 50.3516 36.6875 51.2109 38.5625C52.0859 40.4219 53.4375 41.8672 55.2656 42.8984C57.0938 43.9141 59.25 44.4453 61.7344 44.4922C65.7344 44.5547 69.0469 43.4766 71.6719 41.2578C74.3125 39.0391 75.9062 36 76.4531 32.1406ZM79.9453 44H87.9609L93.8672 9.875H85.875L79.9453 44Z" fill="currentColor"/>
</svg>
