<svg width="152" height="200" viewBox="0 0 152 200" fill="none" xmlns="http://www.w3.org/2000/svg">
<path fill-rule="evenodd" clip-rule="evenodd" d="M18.2929 0H134.335C143.786 0 151.455 7.77476 151.455 16.9775V188.64C151.455 196.488 147.017 200.001 142.463 200.001C139.77 200.001 137.096 198.799 134.434 196.527L82.6905 152.457C81.0824 151.084 78.7838 150.299 76.39 150.299C73.9952 150.299 71.6919 151.084 70.0885 152.453L18.1712 196.534C15.5189 198.799 12.6469 200 9.94938 200C7.09621 200.001 4.43545 198.642 2.78297 196.271C1.40119 194.287 0.543823 191.72 0.543823 188.639V16.9775C0.543823 7.77476 8.84206 0 18.2929 0ZM34 19C29.5817 19 26 22.5817 26 27C26 31.4183 29.5817 35 34 35H118C122.418 35 126 31.4183 126 27C126 22.5817 122.418 19 118 19H34Z" fill="currentColor"/>
</svg>
