<svg width="200" height="196" viewBox="0 0 200 196" fill="none" xmlns="http://www.w3.org/2000/svg">
<path d="M173.519 73.9528L172.567 73.6137L168.852 64.7444L169.255 63.8331C180.511 38.3047 179.735 37.5432 177.868 35.6925L162.853 21.0453C162.239 20.4363 161.162 20.008 160.232 20.008C159.388 20.008 156.829 20.008 134.654 30.0515L133.765 30.4506L124.616 26.7664L124.248 25.8556C113.82 0.034668 112.752 0.034668 110.157 0.034668H88.9536C86.3683 0.034668 85.1909 0.034668 75.5212 25.9005L75.1572 26.8421L66.0559 30.5523L65.1857 30.1905C50.1762 23.8626 41.4124 20.6538 39.1278 20.6538C38.2008 20.6538 37.1191 21.0697 36.5026 21.677L21.4742 36.3663C19.5677 38.2469 18.777 39.0343 30.6225 64.0299L31.0579 64.9569L27.3364 73.8165L26.4256 74.1686C0 84.3808 0 85.3765 0 88.0363V108.814C0 111.481 0 112.589 26.4781 122.078L27.4245 122.412L31.1466 131.246L30.7469 132.149C19.4909 157.689 20.2048 158.38 22.121 160.286L37.1127 174.953C37.7411 175.557 38.8288 175.989 39.7563 175.989C40.5957 175.989 43.1485 175.989 65.3382 165.95L66.2268 165.534L75.3816 169.237L75.7375 170.153C86.172 195.965 87.2439 195.965 89.8405 195.965H111.051C113.714 195.965 114.818 195.965 124.496 170.082L124.856 169.14L133.972 165.454L134.84 165.808C149.837 172.154 158.596 175.356 160.866 175.356C161.785 175.356 162.877 174.953 163.503 174.332L178.556 159.611C180.45 157.721 181.239 156.948 169.372 131.976L168.931 131.038L172.646 122.217L173.533 121.869C200.001 111.604 200.001 110.603 200.001 107.94V87.1742C200 84.5079 200 83.4067 173.519 73.9528ZM99.9997 131.698C81.0497 131.698 65.6335 116.577 65.6335 98.0035C65.6335 79.4299 81.0502 64.3285 99.9997 64.3285C118.942 64.3285 134.355 79.4331 134.355 98.0035C134.356 116.573 118.942 131.698 99.9997 131.698Z" fill="currentColor"/>
</svg>
