<svg width="200" height="184" viewBox="0 0 200 184" fill="none" xmlns="http://www.w3.org/2000/svg">
<path d="M170.801 7.80368C162.683 3.04881 153.391 0.328369 143.491 0.328369C126.049 0.328369 110.377 8.77301 100.033 21.9909C89.6193 8.7717 74 0.328369 56.514 0.328369C46.6234 0.328369 37.3099 3.04094 29.2005 7.80368C11.7942 17.9732 0 37.5751 0 60.2135C0 66.6985 0.993456 72.8568 2.79476 78.6847C12.4616 124.859 74.3653 183.103 100.038 183.103C125.002 183.103 187.5 124.859 197.209 78.6847C199.01 72.8568 200 66.6985 200 60.2135C200.008 37.5751 188.203 17.9732 170.801 7.80368ZM181.811 73.4209C181.249 75.1431 179.794 76.2174 178.19 76.2174C177.788 76.2174 177.383 76.2174 176.967 76.0626C174.955 75.3136 173.913 72.9447 174.584 70.7188C175.667 67.1982 176.224 63.6711 176.224 60.2148C176.224 47.6685 169.747 36.1086 159.385 30.1129C154.435 27.1616 149.115 25.6807 143.492 25.6807C141.375 25.6807 139.703 23.8732 139.703 21.4898C139.703 19.1957 141.374 17.316 143.492 17.316C150.326 17.316 156.89 19.1235 162.947 22.6585C175.829 30.1981 183.824 44.5532 183.824 60.2148C183.822 64.6391 183.164 69.0779 181.811 73.4209Z" fill="currentColor"/>
</svg>
