<svg width="512" height="512" viewBox="0 0 512 512" fill="currentColor" xmlns="http://www.w3.org/2000/svg">
<path d="M15.8529 140.358C6.03506 146.096 0 156.613 0 167.985V479.998C0 497.671 14.3269 511.998 32 511.998H143.929C161.602 511.998 175.929 497.671 175.929 479.998V344.018C175.929 326.344 190.256 312.018 207.929 312.018H304.07C321.743 312.018 336.07 326.344 336.07 344.018V479.998C336.07 497.671 350.397 511.998 368.07 511.998H480C497.673 511.998 512 497.671 512 479.998V167.985C512 156.613 505.965 146.096 496.147 140.358L272.147 9.43922C262.172 3.60908 249.828 3.60908 239.853 9.43923L15.8529 140.358Z" fill="currentColor"/>
</svg>
