<svg width="200" height="200" viewBox="0 0 200 200" fill="none" xmlns="http://www.w3.org/2000/svg">
<mask id="mask0" mask-type="alpha" maskUnits="userSpaceOnUse" x="0" y="0" width="200" height="200">
<rect width="200" height="200" fill="currentColor"/>
</mask>
<g mask="url(#mask0)">
<path d="M16.8538 183.822C13.7618 184.805 10.848 181.891 11.8304 178.799L26.447 132.793C27.3549 129.936 30.9676 129.056 33.0877 131.176L64.4765 162.565C66.5965 164.685 65.7167 168.298 62.8592 169.206L16.8538 183.822Z" fill="currentColor"/>
<path fill-rule="evenodd" clip-rule="evenodd" d="M98.1062 188.62C151.945 188.62 195.59 147.515 195.59 96.81C195.59 46.1047 151.945 5 98.1062 5C44.2674 5 0.622528 46.1047 0.622528 96.81C0.622528 147.515 44.2674 188.62 98.1062 188.62ZM98.1062 106.383C103.49 106.383 107.855 102.018 107.855 96.6346C107.855 91.2507 103.49 86.8862 98.1062 86.8862C92.7223 86.8862 88.3578 91.2507 88.3578 96.6346C88.3578 102.018 92.7223 106.383 98.1062 106.383ZM144.898 96.6346C144.898 102.018 140.534 106.383 135.15 106.383C129.766 106.383 125.402 102.018 125.402 96.6346C125.402 91.2507 129.766 86.8862 135.15 86.8862C140.534 86.8862 144.898 91.2507 144.898 96.6346ZM61.0624 106.383C66.4463 106.383 70.8108 102.018 70.8108 96.6346C70.8108 91.2507 66.4463 86.8862 61.0624 86.8862C55.6786 86.8862 51.3141 91.2507 51.3141 96.6346C51.3141 102.018 55.6786 106.383 61.0624 106.383Z" fill="currentColor"/>
</g>
</svg>
