<svg width="200" height="200" viewBox="0 0 200 200" fill="none" xmlns="http://www.w3.org/2000/svg">
<path d="M88.1928 0.240601C39.5637 0.240601 0 39.6961 0 88.1927C0 136.689 39.5641 176.145 88.1928 176.145C136.821 176.145 176.386 136.689 176.386 88.1927C176.386 39.6961 136.822 0.240601 88.1928 0.240601ZM88.1928 161.687C47.5349 161.687 14.4578 128.715 14.4578 88.1923C14.4578 47.6669 47.5349 14.698 88.1928 14.698C128.851 14.698 161.928 47.6669 161.928 88.1923C161.928 128.715 128.851 161.687 88.1928 161.687Z" fill="currentColor"/>
<path d="M197.87 187.405L150.4 140.176C147.569 137.362 142.993 137.374 140.176 140.203C137.362 143.034 137.374 147.61 140.203 150.427L187.673 197.656C189.085 199.058 190.926 199.759 192.771 199.759C194.629 199.759 196.485 199.048 197.897 197.629C200.711 194.798 200.699 190.222 197.87 187.405Z" fill="currentColor"/>
</svg>
