<?xml version="1.0" encoding="iso-8859-1"?>
<!-- Generator: Adobe Illustrator 19.0.0, SVG Export Plug-In . SVG Version: 6.00 Build 0)  -->
<svg version="1.1" id="Capa_1" xmlns="http://www.w3.org/2000/svg" xmlns:xlink="http://www.w3.org/1999/xlink" x="0px" y="0px"
	 viewBox="0 0 511.999 511.999" style="enable-background:new 0 0 511.999 511.999;" xml:space="preserve" fill="currentColor">
<g>
	<g>
		<path d="M328.481,322.679l-60-90c-5.566-8.35-19.395-8.35-24.961,0l-60,90c-3.062,4.6-3.354,10.518-0.747,15.396
			S190.463,346,196,346h15v105c0,8.291,6.709,15,15,15h60c8.291,0,15-6.709,15-15V346h15c5.537,0,10.62-3.047,13.228-7.925
			C331.836,333.197,331.542,327.279,328.481,322.679z" fill="currentColor"/>
	</g>
</g>
<g>
	<g>
		<path d="M435.456,175.438c-1.32-17.926-8.597-34.649-21.414-47.466c-19.384-19.384-48.565-25.181-74.198-18.025
			C315.196,70.313,272.794,46,226,46c-70.342,0-128.276,54.067-134.326,124.087C39.188,183.344,0,231.141,0,286
			c0,66.167,54.833,120,121,120h60v-32.563c-10.43-3.677-19.292-11.133-24.683-21.226c-7.837-14.634-6.973-32.329,2.227-46.157
			l60.015-90.015c8.188-12.29,22.192-19.614,37.441-19.614c15.249,0,29.253,7.324,37.441,19.614l60,90
			c9.214,13.843,10.078,31.538,2.241,46.172c-5.391,10.093-14.253,17.549-24.683,21.226V406h60c66.167,0,121-53.833,121-120
			C512,236.495,480.947,193.555,435.456,175.438z" fill="currentColor"/>
	</g>
</g>
</svg>
