<svg width="32" height="32" viewBox="0 0 32 32" fill="none" xmlns="http://www.w3.org/2000/svg">
<path d="M21 4C19.61 4 18.242 4.54 17.187 5.594L7.81201 14.969C4.84001 17.941 4.84001 22.777 7.81201 25.75C10.785 28.723 15.622 28.723 18.594 25.75L24.844 19.5L23.437 18.094L17.187 24.344C16.6646 24.8685 16.0437 25.2847 15.36 25.5687C14.6763 25.8527 13.9433 25.9989 13.203 25.9989C12.4627 25.9989 11.7297 25.8527 11.046 25.5687C10.3623 25.2847 9.74144 24.8685 9.21901 24.344C8.69433 23.8215 8.278 23.2006 7.99393 22.5168C7.70985 21.8331 7.56361 21.0999 7.56361 20.3595C7.56361 19.6191 7.70985 18.8859 7.99393 18.2022C8.278 17.5184 8.69433 16.8975 9.21901 16.375L18.594 7C18.9113 6.68075 19.2886 6.42739 19.7042 6.2545C20.1197 6.08161 20.5654 5.9926 21.0155 5.9926C21.4656 5.9926 21.9113 6.08161 22.3269 6.2545C22.7424 6.42739 23.1197 6.68075 23.437 7C23.7564 7.31731 24.0099 7.69466 24.1829 8.11033C24.3559 8.526 24.4449 8.97177 24.4449 9.422C24.4449 9.87223 24.3559 10.318 24.1829 10.7337C24.0099 11.1493 23.7564 11.5267 23.437 11.844L14.062 21.219C13.582 21.699 12.824 21.699 12.344 21.219C12.2299 21.1068 12.1392 20.9731 12.0773 20.8255C12.0154 20.6779 11.9836 20.5195 11.9836 20.3595C11.9836 20.1995 12.0154 20.0411 12.0773 19.8935C12.1392 19.7459 12.2299 19.6122 12.344 19.5L20.938 10.906L19.53 9.5L10.937 18.094C10.3384 18.696 10.0024 19.5105 10.0024 20.3595C10.0024 21.2085 10.3384 22.023 10.937 22.625C11.539 23.2233 12.3533 23.5592 13.202 23.5592C14.0508 23.5592 14.865 23.2233 15.467 22.625L24.843 13.25C25.5993 12.4907 26.1137 11.5243 26.3211 10.4729C26.5286 9.42142 26.4199 8.33208 26.0087 7.34238C25.5976 6.35269 24.9023 5.50701 24.0109 4.91214C23.1194 4.31726 22.0717 3.99985 21 4V4Z" fill="currentColor"/>
</svg>
