<svg width="32" height="32" viewBox="0 0 32 32" fill="none" xmlns="http://www.w3.org/2000/svg">
<path d="M27.3601 20.28L24.9601 17.8667V11.92C24.992 9.71177 24.2239 7.56655 22.7976 5.88045C21.3712 4.19435 19.383 3.08125 17.2001 2.74667C15.9331 2.57982 14.6452 2.68509 13.4222 3.05544C12.1992 3.42578 11.0692 4.0527 10.1077 4.89435C9.14616 5.736 8.37519 6.77304 7.8462 7.93626C7.31722 9.09949 7.04239 10.3621 7.04006 11.64V17.8667L4.64006 20.28C4.3386 20.5865 4.13417 20.975 4.05232 21.3971C3.97048 21.8191 4.01485 22.2559 4.17989 22.6529C4.34494 23.0498 4.62332 23.3893 4.98026 23.6289C5.33719 23.8685 5.75683 23.9976 6.18672 24H10.6667V24.4533C10.729 25.8069 11.3253 27.0807 12.325 27.9954C13.3247 28.9101 14.6463 29.3912 16.0001 29.3333C17.3539 29.3912 18.6754 28.9101 19.6751 27.9954C20.6748 27.0807 21.2711 25.8069 21.3334 24.4533V24H25.8134C26.2433 23.9976 26.6629 23.8685 27.0199 23.6289C27.3768 23.3893 27.6552 23.0498 27.8202 22.6529C27.9853 22.2559 28.0296 21.8191 27.9478 21.3971C27.8659 20.975 27.6615 20.5865 27.3601 20.28V20.28ZM18.6667 24.4533C18.5928 25.0947 18.2742 25.6827 17.7775 26.0951C17.2807 26.5074 16.644 26.7121 16.0001 26.6667C15.3561 26.7121 14.7194 26.5074 14.2226 26.0951C13.7259 25.6827 13.4073 25.0947 13.3334 24.4533V24H18.6667V24.4533Z" fill="currentColor"/>
</svg>
