<svg width="32" height="32" viewBox="0 0 32 32" fill="none" xmlns="http://www.w3.org/2000/svg">
<path d="M20.0736 15.7149C21.7846 15.3619 23.1968 13.8141 23.1968 11.5597C23.1968 9.14275 21.4313 6.94275 17.9824 6.94275H9.28348C9.06248 6.94275 8.85053 7.03054 8.69426 7.18681C8.53799 7.34308 8.4502 7.55503 8.4502 7.77603V24.2237C8.4502 24.4447 8.53799 24.6567 8.69426 24.8129C8.85053 24.9692 9.06248 25.057 9.28348 25.057H18.2812C21.7574 25.057 23.5497 22.8842 23.5497 20.1415C23.55 17.8877 22.0291 16.0135 20.0736 15.7149V15.7149ZM12.3065 10.3376H17.1408C18.4444 10.3376 19.2592 11.1251 19.2592 12.2384C19.2592 13.4061 18.4444 14.1395 17.1408 14.1395H12.3065V10.3376ZM17.3033 21.6624H12.3065V17.5344H17.3036C18.7974 17.5344 19.6121 18.4579 19.6121 19.5984C19.6121 20.9021 18.743 21.6624 17.3033 21.6624V21.6624Z" fill="currentColor"/>
</svg>
