<svg width="32" height="32" viewBox="0 0 32 32" fill="none" xmlns="http://www.w3.org/2000/svg">
<path d="M26.6666 4H5.33329C3.86263 4 2.66663 5.196 2.66663 6.66667V9.33333C2.66663 10.3147 3.20663 11.1667 3.99996 11.6293V25.3333C3.99996 26.804 5.19596 28 6.66663 28H25.3333C26.804 28 28 26.804 28 25.3333V11.6293C28.7933 11.1667 29.3333 10.3147 29.3333 9.33333V6.66667C29.3333 5.196 28.1373 4 26.6666 4ZM5.33329 6.66667H26.6666L26.6693 9.33333H5.33329V6.66667ZM6.66663 25.3333V12H25.3333L25.336 25.3333H6.66663Z" fill="currentColor"/>
<path d="M10.6666 14.6667H21.3333V17.3334H10.6666V14.6667Z" fill="currentColor"/>
</svg>
