<svg width="32" height="32" viewBox="0 0 32 32" fill="none" xmlns="http://www.w3.org/2000/svg">
<path d="M13.1467 24C12.9638 23.9994 12.7831 23.9612 12.6156 23.8878C12.4482 23.8144 12.2976 23.7074 12.1733 23.5733L5.69333 16.68C5.45109 16.4219 5.32133 16.0781 5.33258 15.7242C5.34384 15.3704 5.49518 15.0356 5.75333 14.7933C6.01147 14.5511 6.35527 14.4213 6.70909 14.4326C7.0629 14.4438 7.39776 14.5952 7.63999 14.8533L13.1333 20.7067L24.3467 8.44C24.4605 8.2983 24.602 8.18136 24.7627 8.09635C24.9233 8.01135 25.0996 7.96009 25.2808 7.94571C25.4619 7.93133 25.6441 7.95414 25.8162 8.01274C25.9882 8.07134 26.1464 8.16448 26.2812 8.28646C26.4159 8.40844 26.5243 8.55668 26.5996 8.72206C26.675 8.88744 26.7157 9.06648 26.7193 9.24819C26.723 9.42989 26.6894 9.61042 26.6207 9.77868C26.5521 9.94695 26.4497 10.0994 26.32 10.2267L14.1333 23.56C14.0102 23.6965 13.8601 23.806 13.6926 23.8817C13.5251 23.9575 13.3438 23.9977 13.16 24H13.1467Z" fill="currentColor"/>
</svg>
