<svg width="32" height="32" viewBox="0 0 32 32" fill="none" xmlns="http://www.w3.org/2000/svg">
<path fill-rule="evenodd" clip-rule="evenodd" d="M16 32C7.164 32 0 24.836 0 16C0 7.164 7.164 0 16 0C24.836 0 32 7.164 32 16C32 24.836 24.836 32 16 32ZM2.66667 16C2.66667 23.364 8.636 29.3333 16 29.3333C23.364 29.3333 29.3333 23.364 29.3333 16C29.3333 8.636 23.364 2.66667 16 2.66667C8.636 2.66667 2.66667 8.636 2.66667 16ZM21.724 15.0573L17.3333 19.448V8H14.6667V19.448L10.276 15.0573L8.39067 16.9427L15.0573 23.6093L16 24.552L16.9427 23.6093L23.6093 16.9427L21.724 15.0573V15.0573Z" fill="currentColor"/>
</svg>
