<svg width="32" height="32" viewBox="0 0 32 32" fill="none" xmlns="http://www.w3.org/2000/svg">
<path d="M16 20.6666C15.8245 20.6677 15.6506 20.634 15.4881 20.5677C15.3257 20.5013 15.1779 20.4036 15.0533 20.28L9.72 14.9466C9.59569 14.8223 9.49707 14.6747 9.42979 14.5123C9.36251 14.3499 9.32788 14.1758 9.32788 14C9.32788 13.8242 9.36251 13.6501 9.42979 13.4876C9.49707 13.3252 9.59569 13.1776 9.72 13.0533C9.84432 12.929 9.99191 12.8304 10.1543 12.7631C10.3168 12.6958 10.4909 12.6612 10.6667 12.6612C10.8425 12.6612 11.0166 12.6958 11.179 12.7631C11.3414 12.8304 11.489 12.929 11.6133 13.0533L16 17.4666L20.4 13.2266C20.5227 13.0903 20.6721 12.9807 20.8391 12.9047C21.006 12.8287 21.1869 12.788 21.3703 12.7851C21.5537 12.7822 21.7357 12.8171 21.905 12.8878C22.0743 12.9584 22.2271 13.0633 22.354 13.1957C22.481 13.3281 22.5792 13.4853 22.6426 13.6574C22.706 13.8296 22.7332 14.0129 22.7225 14.196C22.7118 14.3792 22.6634 14.5581 22.5804 14.7217C22.4974 14.8852 22.3815 15.0299 22.24 15.1466L16.9067 20.2933C16.6628 20.5284 16.3387 20.6619 16 20.6666Z" fill="currentColor"/>
</svg>
