<svg width="32" height="32" viewBox="0 0 32 32" fill="none" xmlns="http://www.w3.org/2000/svg">
<path d="M19.3827 7.77633C19.3827 7.55533 19.2949 7.34339 19.1386 7.18712C18.9824 7.03085 18.7704 6.94305 18.5494 6.94305H17.0793C16.8666 6.94342 16.6621 7.02535 16.5079 7.17197C16.3537 7.31859 16.2616 7.51874 16.2505 7.73121L16.2461 7.73089L12.6377 24.0439L12.6329 24.065L12.6294 24.0803H12.6313C12.6223 24.1277 12.6175 24.1758 12.6169 24.224C12.6173 24.4336 12.6968 24.6352 12.8396 24.7886C12.9824 24.9419 13.1779 25.0356 13.3869 25.0509V25.0573H14.9203C15.1259 25.0569 15.3241 24.9802 15.4764 24.8421C15.6287 24.7041 15.7244 24.5144 15.7449 24.3098L15.7491 24.3101L19.3513 7.99905L19.3488 7.99873C19.3702 7.9265 19.3816 7.85167 19.3827 7.77633V7.77633Z" fill="currentColor"/>
</svg>
