<svg width="32" height="32" viewBox="0 0 32 32" fill="none" xmlns="http://www.w3.org/2000/svg">
<path d="M3.61666 11.1984V13.6774H4.34402V10.2611H3.70882L2.6333 11.3417L3.04802 11.7773L3.61666 11.1984Z" fill="currentColor"/>
<path d="M4.10491 18.8553C4.38651 18.8553 4.65819 18.9987 4.65819 19.3011C4.65819 19.7209 4.24859 20.0694 2.85019 21.104V21.6777H5.42139V21.0374H4.02811C4.91451 20.392 5.39579 19.8851 5.39579 19.3011C5.39579 18.6198 4.82235 18.2099 4.08955 18.2099C3.61307 18.2099 3.10619 18.384 2.77307 18.7683L3.18779 19.2499C3.41851 19.0089 3.71547 18.8553 4.10491 18.8553V18.8553Z" fill="currentColor"/>
<path d="M28.1363 6.3645H8.14786C7.85871 6.3645 7.5814 6.47937 7.37694 6.68383C7.17248 6.88829 7.05762 7.16559 7.05762 7.45474V8.4605C7.05762 8.74965 7.17248 9.02696 7.37694 9.23142C7.5814 9.43588 7.85871 9.55074 8.14786 9.55074H28.136C28.4252 9.55074 28.7025 9.43588 28.9069 9.23142C29.1114 9.02696 29.2263 8.74965 29.2263 8.4605V7.45474C29.2263 7.31158 29.1981 7.16982 29.1434 7.03755C29.0886 6.90528 29.0084 6.78509 28.9071 6.68385C28.8059 6.5826 28.6858 6.50229 28.5535 6.4475C28.4212 6.3927 28.2795 6.3645 28.1363 6.3645Z" fill="currentColor"/>
<path d="M28.1363 14.3299H8.14786C7.85871 14.3299 7.5814 14.4448 7.37694 14.6492C7.17248 14.8537 7.05762 15.131 7.05762 15.4201V16.4259C7.05762 16.715 7.17248 16.9924 7.37694 17.1968C7.5814 17.4013 7.85871 17.5161 8.14786 17.5161H28.136C28.4252 17.5161 28.7025 17.4013 28.9069 17.1968C29.1114 16.9924 29.2263 16.715 29.2263 16.4259V15.4201C29.2263 15.277 29.1981 15.1352 29.1434 15.0029C29.0886 14.8707 29.0084 14.7505 28.9071 14.6492C28.8059 14.548 28.6858 14.4677 28.5535 14.4129C28.4212 14.3581 28.2795 14.3299 28.1363 14.3299V14.3299Z" fill="currentColor"/>
<path d="M28.1363 22.2953H8.14786C7.85871 22.2953 7.5814 22.4102 7.37694 22.6147C7.17248 22.8191 7.05762 23.0964 7.05762 23.3856V24.3914C7.05762 24.6805 7.17248 24.9578 7.37694 25.1623C7.5814 25.3667 7.85871 25.4816 8.14786 25.4816H28.136C28.4252 25.4816 28.7025 25.3667 28.9069 25.1623C29.1114 24.9578 29.2263 24.6805 29.2263 24.3914V23.3856C29.2263 23.2424 29.1981 23.1007 29.1434 22.9684C29.0886 22.8361 29.0084 22.7159 28.9071 22.6147C28.8059 22.5135 28.6858 22.4331 28.5535 22.3783C28.4212 22.3236 28.2795 22.2953 28.1363 22.2953V22.2953Z" fill="currentColor"/>
</svg>
