<svg width="32" height="32" viewBox="0 0 32 32" fill="none" xmlns="http://www.w3.org/2000/svg">
<path d="M28.3908 6.44159H8.40262C8.11347 6.44159 7.83616 6.55645 7.6317 6.76091C7.42724 6.96537 7.31238 7.24268 7.31238 7.53183V8.53759C7.31238 8.82674 7.42724 9.10405 7.6317 9.30851C7.83616 9.51297 8.11347 9.62783 8.40262 9.62783H28.3908C28.6799 9.62783 28.9572 9.51297 29.1617 9.30851C29.3662 9.10405 29.481 8.82674 29.481 8.53759V7.53183C29.481 7.24268 29.3662 6.96537 29.1617 6.76091C28.9572 6.55645 28.6799 6.44159 28.3908 6.44159V6.44159Z" fill="currentColor"/>
<path d="M28.3908 14.407H8.40262C8.11347 14.407 7.83616 14.5219 7.6317 14.7264C7.42724 14.9308 7.31238 15.2081 7.31238 15.4973V16.503C7.31238 16.7922 7.42724 17.0695 7.6317 17.274C7.83616 17.4784 8.11347 17.5933 8.40262 17.5933H28.3908C28.6799 17.5933 28.9572 17.4784 29.1617 17.274C29.3662 17.0695 29.481 16.7922 29.481 16.503V15.4973C29.481 15.2081 29.3662 14.9308 29.1617 14.7264C28.9572 14.5219 28.6799 14.407 28.3908 14.407V14.407Z" fill="currentColor"/>
<path d="M28.3908 22.3721H8.40262C8.11347 22.3721 7.83616 22.487 7.6317 22.6915C7.42724 22.8959 7.31238 23.1732 7.31238 23.4624V24.4681C7.31238 24.7573 7.42724 25.0346 7.6317 25.239C7.83616 25.4435 8.11347 25.5584 8.40262 25.5584H28.3908C28.6799 25.5584 28.9572 25.4435 29.1617 25.239C29.3662 25.0346 29.481 24.7573 29.481 24.4681V23.4624C29.4809 23.1732 29.366 22.896 29.1616 22.6915C28.9572 22.4871 28.6799 22.3722 28.3908 22.3721V22.3721Z" fill="currentColor"/>
<path d="M4.11392 9.62946C4.99475 9.62946 5.7088 8.9154 5.7088 8.03458C5.7088 7.15375 4.99475 6.4397 4.11392 6.4397C3.23309 6.4397 2.51904 7.15375 2.51904 8.03458C2.51904 8.9154 3.23309 9.62946 4.11392 9.62946Z" fill="currentColor"/>
<path d="M4.11392 17.2755C4.99475 17.2755 5.7088 16.5615 5.7088 15.6806C5.7088 14.7998 4.99475 14.0858 4.11392 14.0858C3.23309 14.0858 2.51904 14.7998 2.51904 15.6806C2.51904 16.5615 3.23309 17.2755 4.11392 17.2755Z" fill="currentColor"/>
<path d="M4.11392 25.56C4.99475 25.56 5.7088 24.8459 5.7088 23.9651C5.7088 23.0843 4.99475 22.3702 4.11392 22.3702C3.23309 22.3702 2.51904 23.0843 2.51904 23.9651C2.51904 24.8459 3.23309 25.56 4.11392 25.56Z" fill="currentColor"/>
</svg>
