<svg width="32" height="32" viewBox="0 0 32 32" fill="none" xmlns="http://www.w3.org/2000/svg">
<path d="M22.6666 14.6667H20V12H22.6666V14.6667ZM17.3333 14.6667H14.6666V12H17.3333V14.6667ZM12 14.6667H9.33329V12H12V14.6667ZM26.6666 2.66666H5.33329C4.62605 2.66666 3.94777 2.94761 3.44767 3.4477C2.94758 3.9478 2.66663 4.62608 2.66663 5.33332V29.3333L7.99996 24H26.6666C27.3739 24 28.0521 23.719 28.5522 23.2189C29.0523 22.7188 29.3333 22.0406 29.3333 21.3333V5.33332C29.3333 4.62608 29.0523 3.9478 28.5522 3.4477C28.0521 2.94761 27.3739 2.66666 26.6666 2.66666Z" fill="currentColor"/>
</svg>
