<svg width="32" height="32" viewBox="0 0 32 32" fill="none" xmlns="http://www.w3.org/2000/svg">
<path d="M12 14.6667C13.0548 14.6667 14.0859 14.3539 14.963 13.7678C15.8401 13.1818 16.5237 12.3489 16.9273 11.3743C17.331 10.3998 17.4366 9.32742 17.2308 8.29285C17.025 7.25829 16.5171 6.30798 15.7712 5.5621C15.0253 4.81622 14.075 4.30827 13.0404 4.10248C12.0059 3.89669 10.9335 4.00231 9.95898 4.40598C8.98444 4.80965 8.15149 5.49323 7.56545 6.37029C6.97942 7.24736 6.66663 8.2785 6.66663 9.33334C6.66663 10.7478 7.22853 12.1044 8.22872 13.1046C9.22892 14.1048 10.5855 14.6667 12 14.6667ZM12 6.66667C12.5274 6.66667 13.0429 6.82307 13.4815 7.11608C13.92 7.4091 14.2618 7.82558 14.4636 8.31285C14.6655 8.80012 14.7183 9.33629 14.6154 9.85358C14.5125 10.3709 14.2585 10.846 13.8856 11.219C13.5126 11.5919 13.0375 11.8459 12.5202 11.9488C12.0029 12.0517 11.4667 11.9988 10.9795 11.797C10.4922 11.5952 10.0757 11.2534 9.78271 10.8149C9.48969 10.3763 9.33329 9.86075 9.33329 9.33334C9.33329 8.62609 9.61424 7.94781 10.1143 7.44772C10.6144 6.94762 11.2927 6.66667 12 6.66667ZM22.6666 17.3333C23.4578 17.3333 24.2311 17.0987 24.8889 16.6592C25.5467 16.2197 26.0594 15.595 26.3621 14.8641C26.6649 14.1332 26.7441 13.3289 26.5898 12.553C26.4354 11.7771 26.0545 11.0643 25.4951 10.5049C24.9356 9.9455 24.2229 9.56454 23.447 9.4102C22.6711 9.25585 21.8668 9.33507 21.1359 9.63782C20.405 9.94057 19.7803 10.4533 19.3407 11.1111C18.9012 11.7689 18.6666 12.5422 18.6666 13.3333C18.6666 14.3942 19.0881 15.4116 19.8382 16.1618C20.5883 16.9119 21.6058 17.3333 22.6666 17.3333ZM22.6666 12C22.9303 12 23.1881 12.0782 23.4074 12.2247C23.6267 12.3712 23.7975 12.5795 23.8985 12.8231C23.9994 13.0667 24.0258 13.3348 23.9743 13.5935C23.9229 13.8521 23.7959 14.0897 23.6094 14.2761C23.423 14.4626 23.1854 14.5896 22.9267 14.6411C22.6681 14.6925 22.4 14.6661 22.1564 14.5652C21.9127 14.4643 21.7045 14.2934 21.558 14.0741C21.4115 13.8548 21.3333 13.597 21.3333 13.3333C21.3333 12.9797 21.4738 12.6406 21.7238 12.3905C21.9739 12.1405 22.313 12 22.6666 12ZM22.6666 18.6667C21.1891 18.6683 19.7539 19.1608 18.5866 20.0667C17.2806 18.7658 15.6187 17.8808 13.8104 17.5232C12.0021 17.1657 10.1284 17.3516 8.4256 18.0575C6.7228 18.7634 5.26718 19.9578 4.24228 21.4899C3.21739 23.022 2.66912 24.8234 2.66663 26.6667C2.66663 27.0203 2.8071 27.3594 3.05715 27.6095C3.3072 27.8595 3.64634 28 3.99996 28C4.35358 28 4.69272 27.8595 4.94277 27.6095C5.19282 27.3594 5.33329 27.0203 5.33329 26.6667C5.33329 24.8986 6.03567 23.2029 7.28591 21.9526C8.53616 20.7024 10.2318 20 12 20C13.7681 20 15.4638 20.7024 16.714 21.9526C17.9642 23.2029 18.6666 24.8986 18.6666 26.6667C18.6666 27.0203 18.8071 27.3594 19.0572 27.6095C19.3072 27.8595 19.6463 28 20 28C20.3536 28 20.6927 27.8595 20.9428 27.6095C21.1928 27.3594 21.3333 27.0203 21.3333 26.6667C21.3365 25.1046 20.9419 23.5674 20.1866 22.2C20.7759 21.7344 21.4843 21.4441 22.2308 21.3622C22.9773 21.2804 23.7318 21.4104 24.4079 21.7373C25.084 22.0642 25.6544 22.5749 26.0539 23.2108C26.4533 23.8468 26.6657 24.5823 26.6666 25.3333C26.6666 25.687 26.8071 26.0261 27.0571 26.2761C27.3072 26.5262 27.6463 26.6667 28 26.6667C28.3536 26.6667 28.6927 26.5262 28.9428 26.2761C29.1928 26.0261 29.3333 25.687 29.3333 25.3333C29.3333 23.5652 28.6309 21.8695 27.3807 20.6193C26.1304 19.369 24.4347 18.6667 22.6666 18.6667Z" fill="currentColor"/>
</svg>
