<svg width="32" height="32" viewBox="0 0 32 32" fill="none" xmlns="http://www.w3.org/2000/svg">
<path d="M17.3333 2.66666C16.9797 2.66666 16.6406 2.80713 16.3905 3.05718C16.1405 3.30723 16 3.64637 16 3.99999V14.6667C16 15.0203 16.1405 15.3594 16.3905 15.6095C16.6406 15.8595 16.9797 16 17.3333 16H28C28.3536 16 28.6928 15.8595 28.9428 15.6095C29.1929 15.3594 29.3333 15.0203 29.3333 14.6667C29.3333 11.4841 28.0691 8.43181 25.8186 6.18137C23.5682 3.93094 20.5159 2.66666 17.3333 2.66666V2.66666ZM18.6667 13.3333V5.42666C20.6616 5.71414 22.5099 6.63969 23.9351 8.0649C25.3603 9.49011 26.2859 11.3384 26.5733 13.3333H18.6667Z" fill="currentColor"/>
<path d="M27.76 18.7467C27.5946 18.6875 27.4191 18.6617 27.2437 18.6706C27.0682 18.6795 26.8962 18.723 26.7376 18.7986C26.579 18.8741 26.4369 18.9803 26.3195 19.111C26.2021 19.2417 26.1116 19.3943 26.0534 19.56C25.4525 21.2586 24.4312 22.7772 23.0847 23.9744C21.7382 25.1715 20.1104 26.008 18.3532 26.4059C16.596 26.8039 14.7666 26.7502 13.0357 26.2499C11.3048 25.7497 9.7289 24.8191 8.4549 23.5451C7.1809 22.2711 6.25036 20.6952 5.75011 18.9643C5.24986 17.2335 5.19618 15.4041 5.5941 13.6469C5.99202 11.8897 6.82856 10.2619 8.02568 8.91536C9.2228 7.56886 10.7415 6.54754 12.44 5.94667C12.7742 5.82997 13.0483 5.58531 13.2021 5.2665C13.3559 4.94768 13.3767 4.58084 13.26 4.24667C13.1433 3.91249 12.8987 3.63837 12.5799 3.48459C12.2611 3.33081 11.8942 3.30997 11.56 3.42667C9.43609 4.17704 7.53688 5.45329 6.03966 7.13629C4.54244 8.8193 3.49602 10.8542 2.99807 13.0511C2.50012 15.2479 2.56687 17.5352 3.19209 19.6993C3.81732 21.8633 4.98063 23.8338 6.57346 25.4266C8.16628 27.0194 10.1367 28.1827 12.3008 28.8079C14.4649 29.4332 16.7521 29.4999 18.949 29.002C21.1458 28.504 23.1807 27.4576 24.8637 25.9604C26.5468 24.4632 27.823 22.5639 28.5734 20.44C28.6887 20.1075 28.6679 19.743 28.5155 19.4258C28.3632 19.1086 28.0916 18.8645 27.76 18.7467Z" fill="currentColor"/>
</svg>
