<svg width="32" height="32" viewBox="0 0 32 32" fill="none" xmlns="http://www.w3.org/2000/svg">
<path d="M14 22.6667C13.8245 22.6677 13.6506 22.634 13.4881 22.5677C13.3257 22.5013 13.1779 22.4036 13.0533 22.28C12.9284 22.156 12.8292 22.0086 12.7615 21.8461C12.6938 21.6836 12.6589 21.5093 12.6589 21.3333C12.6589 21.1573 12.6938 20.983 12.7615 20.8206C12.8292 20.6581 12.9284 20.5106 13.0533 20.3867L17.4667 16L13.2267 11.5867C12.9783 11.3368 12.8389 10.9989 12.8389 10.6467C12.8389 10.2944 12.9783 9.95647 13.2267 9.70665C13.3506 9.58168 13.4981 9.48249 13.6606 9.4148C13.823 9.34711 13.9973 9.31226 14.1733 9.31226C14.3493 9.31226 14.5236 9.34711 14.6861 9.4148C14.8486 9.48249 14.996 9.58168 15.12 9.70665L20.2667 15.04C20.511 15.2892 20.6478 15.6243 20.6478 15.9733C20.6478 16.3223 20.511 16.6574 20.2667 16.9067L14.9333 22.24C14.8137 22.3692 14.6696 22.4735 14.5094 22.5467C14.3492 22.6199 14.176 22.6607 14 22.6667V22.6667Z" fill="currentColor"/>
</svg>
