<svg width="32" height="32" viewBox="0 0 32 32" fill="none" xmlns="http://www.w3.org/2000/svg">
<path d="M11.48 29.3333C10.8294 29.3295 10.1977 29.1142 9.68005 28.72L6.92005 26.6667C6.28313 26.1701 5.86052 25.4484 5.73902 24.65C5.61752 23.8516 5.80634 23.0369 6.26671 22.3733C6.5103 22.0137 6.6651 21.6013 6.71841 21.1702C6.77172 20.7391 6.72202 20.3015 6.57338 19.8933L6.49338 19.68C6.38989 19.3105 6.20073 18.9707 5.94126 18.6881C5.68179 18.4054 5.35932 18.188 5.00005 18.0533H4.78671C4.00788 17.7914 3.36379 17.2329 2.99433 16.4989C2.62486 15.765 2.55984 14.9149 2.81338 14.1333L3.90671 10.6667C4.00736 10.265 4.19266 9.88949 4.4502 9.56527C4.70774 9.24104 5.03159 8.97558 5.40005 8.78666C5.74318 8.60986 6.11862 8.50452 6.50364 8.47702C6.88867 8.44952 7.27527 8.50042 7.64005 8.62666C8.03723 8.76033 8.46104 8.79497 8.87465 8.72759C9.28827 8.6602 9.67917 8.49282 10.0134 8.23999L10.1867 8.10666C10.4892 7.86526 10.7337 7.55906 10.9022 7.21061C11.0707 6.86216 11.1588 6.48035 11.16 6.09332V5.77332C11.1565 4.9575 11.4753 4.17329 12.0472 3.59143C12.619 3.00958 13.3976 2.6772 14.2134 2.66666H17.6134C18.0103 2.66773 18.4031 2.7472 18.7692 2.9005C19.1353 3.05381 19.4675 3.27793 19.7467 3.55999C20.3338 4.15704 20.6599 4.96269 20.6534 5.79999V6.17332C20.6466 6.54099 20.7264 6.9051 20.8862 7.2363C21.046 7.56749 21.2814 7.85649 21.5734 8.07999L21.72 8.18666C22.0193 8.41106 22.3684 8.55978 22.7375 8.62014C23.1066 8.6805 23.4849 8.65072 23.84 8.53332L24.2934 8.38666C24.6775 8.25934 25.0833 8.21068 25.4866 8.24358C25.8899 8.27649 26.2824 8.39028 26.6408 8.57818C26.9991 8.76607 27.316 9.02422 27.5724 9.33722C27.8289 9.65022 28.0196 10.0117 28.1334 10.4L29.1867 13.76C29.4304 14.5365 29.3638 15.3773 29.0008 16.1057C28.6379 16.8342 28.0068 17.3936 27.24 17.6667L26.9734 17.76C26.5812 17.8884 26.2265 18.1112 25.9405 18.4088C25.6546 18.7064 25.4461 19.0696 25.3334 19.4667C25.2272 19.8357 25.2021 20.2234 25.2596 20.6031C25.3171 20.9828 25.456 21.3456 25.6667 21.6667L26.0134 22.1733C26.4731 22.8406 26.6602 23.6584 26.5362 24.4592C26.4123 25.26 25.9867 25.983 25.3467 26.48L22.6667 28.5467C22.3429 28.7943 21.9719 28.973 21.5765 29.0718C21.181 29.1706 20.7695 29.1874 20.3673 29.1212C19.9651 29.055 19.5807 28.9072 19.2378 28.6869C18.8949 28.4665 18.6007 28.1783 18.3734 27.84L18.2134 27.6133C17.995 27.2851 17.697 27.0176 17.3473 26.8358C16.9976 26.6539 16.6075 26.5636 16.2134 26.5733C15.8373 26.5831 15.4689 26.6811 15.1377 26.8594C14.8065 27.0377 14.5218 27.2914 14.3067 27.6L14 28.04C13.7726 28.3807 13.4779 28.6712 13.1339 28.8936C12.7899 29.1161 12.4041 29.2657 12 29.3333C11.8271 29.3503 11.653 29.3503 11.48 29.3333ZM5.86671 15.4933C6.61963 15.7618 7.29901 16.2033 7.85018 16.7822C8.40134 17.3612 8.8089 18.0615 9.04005 18.8267V18.9867C9.32796 19.7822 9.4225 20.6347 9.31585 21.474C9.2092 22.3133 8.90444 23.1151 8.42671 23.8133C8.34239 23.9065 8.29569 24.0277 8.29569 24.1533C8.29569 24.279 8.34239 24.4002 8.42671 24.4933L11.2934 26.6667C11.3308 26.696 11.374 26.7171 11.4202 26.7283C11.4664 26.7396 11.5145 26.7409 11.5612 26.732C11.608 26.7232 11.6523 26.7045 11.6912 26.6771C11.73 26.6497 11.7626 26.6143 11.7867 26.5733L12.0934 26.1333C12.5559 25.465 13.1736 24.9188 13.8935 24.5416C14.6133 24.1643 15.414 23.9672 16.2267 23.9672C17.0395 23.9672 17.8401 24.1643 18.56 24.5416C19.2799 24.9188 19.8975 25.465 20.36 26.1333L20.52 26.3733C20.5774 26.4547 20.6629 26.5117 20.76 26.5333C20.8046 26.5399 20.85 26.5374 20.8935 26.5259C20.9371 26.5145 20.9778 26.4943 21.0134 26.4667L23.76 24.3867C23.8562 24.3103 23.9195 24.2001 23.9368 24.0786C23.9542 23.9571 23.9243 23.8335 23.8534 23.7333L23.5067 23.2267C23.055 22.568 22.757 21.8163 22.6347 21.027C22.5124 20.2378 22.5689 19.4311 22.8 18.6667C23.0344 17.8632 23.4582 17.1277 24.036 16.5221C24.6137 15.9165 25.3285 15.4585 26.12 15.1867L26.3867 15.0933C26.4979 15.0488 26.5869 14.9621 26.6343 14.8522C26.6818 14.7423 26.6838 14.6181 26.64 14.5067L25.6 11.1867C25.5751 11.1286 25.5386 11.0762 25.4927 11.0326C25.4469 10.9891 25.3927 10.9553 25.3334 10.9333C25.2941 10.9134 25.2507 10.903 25.2067 10.903C25.1627 10.903 25.1193 10.9134 25.08 10.9333L24.6267 11.08C23.8598 11.3331 23.043 11.3962 22.2464 11.2638C21.4497 11.1314 20.6972 10.8075 20.0534 10.32L20 10.2C19.3823 9.73215 18.8814 9.12747 18.5367 8.43344C18.192 7.73941 18.0129 6.97491 18.0134 6.19999V5.78666C18.0158 5.65814 17.968 5.53376 17.88 5.43999C17.8033 5.37067 17.7034 5.33261 17.6 5.33332H14.2134C14.1591 5.33671 14.1059 5.3508 14.0571 5.37477C14.0082 5.39874 13.9646 5.43212 13.9287 5.47301C13.8927 5.51389 13.8652 5.56146 13.8477 5.613C13.8302 5.66454 13.8231 5.71902 13.8267 5.77332V6.10666C13.8268 6.90271 13.6441 7.68815 13.2927 8.40246C12.9414 9.11676 12.4307 9.74086 11.8 10.2267L11.6267 10.36C10.9464 10.878 10.149 11.2207 9.30498 11.3579C8.46093 11.4951 7.59611 11.4225 6.78671 11.1467C6.72615 11.1263 6.66061 11.1263 6.60005 11.1467C6.5248 11.1924 6.46813 11.2632 6.44005 11.3467L5.33338 14.8267C5.2948 14.9452 5.30384 15.0741 5.35859 15.186C5.41333 15.298 5.50949 15.3843 5.62671 15.4267L5.86671 15.4933Z" fill="currentColor"/>
<path d="M16 20.6666C15.0771 20.6666 14.1748 20.393 13.4074 19.8802C12.64 19.3674 12.0418 18.6386 11.6886 17.7858C11.3354 16.9331 11.243 15.9948 11.423 15.0896C11.6031 14.1843 12.0476 13.3528 12.7002 12.7002C13.3529 12.0475 14.1844 11.603 15.0896 11.423C15.9949 11.2429 16.9332 11.3353 17.7859 11.6885C18.6386 12.0418 19.3675 12.6399 19.8802 13.4073C20.393 14.1748 20.6667 15.077 20.6667 16C20.6667 17.2377 20.175 18.4246 19.2999 19.2998C18.4247 20.175 17.2377 20.6666 16 20.6666V20.6666ZM16 14C15.6045 14 15.2178 14.1173 14.8889 14.337C14.56 14.5568 14.3037 14.8692 14.1523 15.2346C14.0009 15.6001 13.9613 16.0022 14.0385 16.3902C14.1156 16.7781 14.3061 17.1345 14.5858 17.4142C14.8655 17.6939 15.2219 17.8844 15.6099 17.9616C15.9978 18.0387 16.4 17.9991 16.7654 17.8477C17.1309 17.6964 17.4432 17.44 17.663 17.1111C17.8827 16.7822 18 16.3955 18 16C18 15.4695 17.7893 14.9608 17.4143 14.5858C17.0392 14.2107 16.5305 14 16 14Z" fill="currentColor"/>
</svg>
