<svg width="32" height="32" viewBox="0 0 32 32" fill="none" xmlns="http://www.w3.org/2000/svg">
<path d="M15.9999 24.0001C18.1216 24.0001 20.1564 23.2626 21.6567 21.9498C23.157 20.6371 23.9999 18.8566 23.9999 17.0001H7.99988C7.99988 18.8566 8.84273 20.6371 10.343 21.9498C11.8433 23.2626 13.8781 24.0001 15.9999 24.0001Z" fill="currentColor"/>
<path fill-rule="evenodd" clip-rule="evenodd" d="M29.3333 16C29.3333 23.364 23.364 29.3334 16 29.3334C8.63596 29.3334 2.66663 23.364 2.66663 16C2.66663 8.63602 8.63596 2.66669 16 2.66669C23.364 2.66669 29.3333 8.63602 29.3333 16ZM26.6666 16C26.6666 18.829 25.5428 21.5421 23.5424 23.5425C21.542 25.5429 18.8289 26.6667 16 26.6667C13.171 26.6667 10.4579 25.5429 8.45749 23.5425C6.4571 21.5421 5.33329 18.829 5.33329 16C5.33329 13.171 6.4571 10.4579 8.45749 8.45755C10.4579 6.45716 13.171 5.33335 16 5.33335C18.8289 5.33335 21.542 6.45716 23.5424 8.45755C25.5428 10.4579 26.6666 13.171 26.6666 16V16Z" fill="currentColor"/>
</svg>
