<svg width="32" height="32" viewBox="0 0 32 32" fill="none" xmlns="http://www.w3.org/2000/svg">
<path d="M24.8 24.1744C24.7885 24.1744 24.7782 24.1773 24.767 24.1776V24.1744H7.16703V24.1776C6.65247 24.1955 6.23999 24.6153 6.23999 25.1344C6.23999 25.6534 6.65215 26.0733 7.16703 26.0912V26.0944H24.767V26.0912C24.7782 26.0915 24.7888 26.0944 24.8 26.0944C25.0546 26.0944 25.2988 25.9932 25.4788 25.8132C25.6588 25.6332 25.76 25.389 25.76 25.1344C25.76 24.8798 25.6588 24.6356 25.4788 24.4556C25.2988 24.2755 25.0546 24.1744 24.8 24.1744V24.1744Z" fill="currentColor"/>
<path d="M16 23.0784C21.0653 23.0784 23.5459 20.1801 23.5459 15.8717V6.84254C23.5459 6.71947 23.5216 6.5976 23.4745 6.48391C23.4274 6.37021 23.3584 6.2669 23.2714 6.17989C23.1843 6.09289 23.081 6.02388 22.9673 5.97681C22.8536 5.92974 22.7317 5.90554 22.6086 5.90558H21.3721C21.2491 5.90554 21.1272 5.92974 21.0135 5.97681C20.8998 6.02388 20.7964 6.09289 20.7094 6.17989C20.6224 6.2669 20.5533 6.37021 20.5062 6.48391C20.4591 6.5976 20.4349 6.71947 20.4349 6.84254C20.4349 6.85534 20.4381 6.86686 20.4387 6.87966V15.7936C20.4387 18.5613 18.8982 20.3632 16 20.3632C13.1017 20.3632 11.5613 18.5613 11.5613 15.7936V6.87678C11.5616 6.86526 11.5648 6.85406 11.5648 6.84254C11.5648 6.59404 11.4661 6.35572 11.2903 6.18001C11.1146 6.00429 10.8763 5.90558 10.6278 5.90558H9.39102C9.14249 5.90558 8.90414 6.00428 8.72837 6.17999C8.55261 6.35569 8.45382 6.59401 8.45374 6.84254V15.8717C8.45374 20.1801 10.9606 23.0784 16 23.0784Z" fill="currentColor"/>
</svg>
