<svg width="24" height="24" viewBox="0 0 24 24" fill="none" xmlns="http://www.w3.org/2000/svg">
<path d="M12 2C13.3132 2 14.6136 2.25866 15.8268 2.7612C17.0401 3.26375 18.1425 4.00035 19.0711 4.92893C20.9464 6.8043 22 9.34784 22 12C22.0088 14.3091 21.2092 16.5485 19.74 18.33L21.74 20.33C21.8788 20.4706 21.9728 20.6492 22.0101 20.8432C22.0475 21.0372 22.0266 21.2379 21.95 21.42C21.867 21.5999 21.7323 21.7511 21.5632 21.8544C21.394 21.9577 21.198 22.0083 21 22H12C9.34785 22 6.80431 20.9464 4.92894 19.0711C3.05358 17.1957 2.00001 14.6522 2.00001 12C2.00001 9.34784 3.05358 6.8043 4.92894 4.92893C6.80431 3.05357 9.34785 2 12 2V2ZM12 20H18.59L17.66 19.07C17.4738 18.8826 17.3692 18.6292 17.3692 18.365C17.3692 18.1008 17.4738 17.8474 17.66 17.66C18.9694 16.352 19.7848 14.6305 19.9673 12.7888C20.1498 10.947 19.6881 9.09901 18.6608 7.55952C17.6335 6.02004 16.1042 4.88436 14.3335 4.34597C12.5628 3.80759 10.6602 3.8998 8.9498 4.60691C7.23944 5.31402 5.82716 6.59227 4.95357 8.22389C4.07999 9.85551 3.79914 11.7395 4.15888 13.555C4.51863 15.3705 5.4967 17.005 6.92647 18.1802C8.35624 19.3554 10.1492 19.9985 12 20V20Z" fill="#626262"/>
</svg>
