<svg xmlns="http://www.w3.org/2000/svg" xmlns:xlink="http://www.w3.org/1999/xlink" width="32" height="32" preserveAspectRatio="xMidYMid meet" viewBox="0 0 32 32" style="-ms-transform: rotate(360deg); -webkit-transform: rotate(360deg); transform: rotate(360deg);">
  <defs>
    <linearGradient id="grad" x1="0%" y1="0%" x2="0%" y2="100%">
      <stop offset="0%" style="stop-color:rgb(150,47,191);stop-opacity:1" />
      <stop offset="100%" style="stop-color:rgb(250,126,30);stop-opacity:1" />
    </linearGradient>
  </defs>
  <path d="M16.612 2.214a1.01 1.01 0 0 0-1.242 0L1 13.419l1.243 1.572L4 13.621V26a2.004 2.004 0 0 0 2 2h20a2.004 2.004 0 0 0 2-2V13.63L29.757 15L31 13.428zM18 26h-4v-8h4zm2 0v-8a2.002 2.002 0 0 0-2-2h-4a2.002 2.002 0 0 0-2 2v8H6V12.062l10-7.79l10 7.8V26z" fill="url(#grad)"/><rect x="0" y="0" width="32" height="32" fill="rgba(0, 0, 0, 0)" />
</svg>
