<svg xmlns="http://www.w3.org/2000/svg" xmlns:xlink="http://www.w3.org/1999/xlink" width="15" height="15" preserveAspectRatio="xMidYMid meet" viewBox="0 0 15 15" style="-ms-transform: rotate(360deg); -webkit-transform: rotate(360deg); transform: rotate(360deg);"><g fill="none"><path d="M14.5.5l.46.197a.5.5 0 0 0-.657-.657L14.5.5zm-14 6l-.197-.46a.5.5 0 0 0-.06.889L.5 6.5zm8 8l-.429.257a.5.5 0 0 0 .889-.06L8.5 14.5zM14.303.04l-14 6l.394.92l14-6l-.394-.92zM.243 6.93l5 3l.514-.858l-5-3l-.514.858zM5.07 9.757l3 5l.858-.514l-3-5l-.858.514zm3.889 4.94l6-14l-.92-.394l-6 14l.92.394zM14.146.147l-9 9l.708.707l9-9l-.708-.708z" fill="currentColor"/></g><rect x="0" y="0" width="15" height="15" fill="rgba(0, 0, 0, 0)" /></svg>
