<svg width="32" height="32" viewBox="0 0 32 32" fill="none" xmlns="http://www.w3.org/2000/svg">
<path d="M26.3961 6.05882H27.9029V10.6471H26.3961V6.05882Z" fill="black"/>
<path d="M23.3825 9.11765H27.9029V10.6471H23.3825V9.11765Z" fill="black"/>
<path d="M26.2902 10.6471C24.2059 6.98992 20.3102 4.52941 15.8484 4.52941C11.4575 4.52941 7.615 6.91225 5.50748 10.4734L4 10.0634C6.31836 5.84949 10.7555 3 15.8484 3C21.173 3 25.7809 6.11474 28 10.6471H26.2902Z" fill="black"/>
<path d="M5.60392 25.9412H4.09712L4.09712 21.3529H5.60393L5.60392 25.9412Z" fill="black"/>
<path d="M8.61754 22.8824H4.09712L4.09712 21.3529H8.61754V22.8824Z" fill="black"/>
<path d="M5.70983 21.3529C7.7941 25.0101 11.6898 27.4706 16.1516 27.4706C20.5425 27.4706 24.385 25.0878 26.4925 21.5266L28 21.9366C25.6816 26.1505 21.2445 29 16.1516 29C10.827 29 6.21908 25.8853 4 21.3529H5.70983Z" fill="black"/>
</svg>
