<?xml version="1.0" encoding="iso-8859-1"?>
<!-- Generator: Adobe Illustrator 16.0.0, SVG Export Plug-In . SVG Version: 6.00 Build 0)  -->
<!DOCTYPE svg PUBLIC "-//W3C//DTD SVG 1.1//EN" "http://www.w3.org/Graphics/SVG/1.1/DTD/svg11.dtd">
<svg version="1.1" id="Capa_1" xmlns="http://www.w3.org/2000/svg" xmlns:xlink="http://www.w3.org/1999/xlink" x="0px" y="0px"
	 width="31.445px" height="31.445px" viewBox="0 0 31.445 31.445" style="enable-background:new 0 0 31.445 31.445;"
	 xml:space="preserve" fill="#FB6C39">
<g>
	<g>
		<path d="M7.592,16.86c-1.77,0-3.203,1.434-3.203,3.204s1.434,3.204,3.203,3.204c1.768,0,3.203-1.434,3.203-3.204
			S9.36,16.86,7.592,16.86z M7.592,21.032c-0.532,0-0.968-0.434-0.968-0.967s0.436-0.967,0.968-0.967
			c0.531,0,0.966,0.434,0.966,0.967S8.124,21.032,7.592,21.032z"/>
		<path d="M30.915,17.439l-0.524-4.262c-0.103-0.818-0.818-1.418-1.643-1.373L27.6,11.868l-3.564-3.211
			c-0.344-0.309-0.787-0.479-1.249-0.479l-7.241-0.001c-1.625,0-3.201,0.555-4.468,1.573l-4.04,3.246l-5.433,1.358
			c-0.698,0.174-1.188,0.802-1.188,1.521v1.566C0.187,17.44,0,17.626,0,17.856v2.071c0,0.295,0.239,0.534,0.534,0.534h3.067
			c-0.013-0.133-0.04-0.26-0.04-0.396c0-2.227,1.804-4.029,4.03-4.029s4.029,1.802,4.029,4.029c0,0.137-0.028,0.264-0.041,0.396
			h8.493c-0.012-0.133-0.039-0.26-0.039-0.396c0-2.227,1.804-4.029,4.029-4.029c2.227,0,4.028,1.802,4.028,4.029
			c0,0.137-0.026,0.264-0.04,0.396h2.861c0.295,0,0.533-0.239,0.533-0.534v-1.953C31.449,17.68,31.21,17.439,30.915,17.439z
			 M20.168,12.202l-10.102,0.511L12,11.158c1.051-0.845,2.357-1.305,3.706-1.305h4.462V12.202z M21.846,12.117V9.854h0.657
			c0.228,0,0.447,0.084,0.616,0.237l2.062,1.856L21.846,12.117z"/>
		<path d="M24.064,16.86c-1.77,0-3.203,1.434-3.203,3.204s1.434,3.204,3.203,3.204c1.769,0,3.203-1.434,3.203-3.204
			S25.833,16.86,24.064,16.86z M24.064,21.032c-0.533,0-0.967-0.434-0.967-0.967s0.434-0.967,0.967-0.967
			c0.531,0,0.967,0.434,0.967,0.967S24.596,21.032,24.064,21.032z"/>
	</g>
</g>
<g>
</g>
<g>
</g>
<g>
</g>
<g>
</g>
<g>
</g>
<g>
</g>
<g>
</g>
<g>
</g>
<g>
</g>
<g>
</g>
<g>
</g>
<g>
</g>
<g>
</g>
<g>
</g>
<g>
</g>
</svg>
