<svg width="16" height="16" viewBox="0 0 16 16" fill="none" xmlns="http://www.w3.org/2000/svg">
<rect y="2" width="16" height="10" rx="1" fill="#F464B9"/>
<path d="M7.64599 9.35392L3.85399 13.1459C3.78394 13.2158 3.7362 13.3049 3.7168 13.4019C3.6974 13.4989 3.70722 13.5995 3.74501 13.6909C3.78281 13.7824 3.84687 13.8605 3.92911 13.9155C4.01135 13.9705 4.10805 13.9999 4.20699 13.9999H11.793C11.892 14.0001 11.9889 13.9709 12.0712 13.9159C12.1536 13.861 12.2179 13.7829 12.2558 13.6914C12.2937 13.5999 12.3036 13.4992 12.2842 13.4021C12.2649 13.305 12.2171 13.2159 12.147 13.1459L8.35399 9.35392C8.30754 9.30736 8.25236 9.27042 8.19162 9.24521C8.13087 9.22001 8.06575 9.20703 7.99999 9.20703C7.93422 9.20703 7.8691 9.22001 7.80835 9.24521C7.74761 9.27042 7.69243 9.30736 7.64599 9.35392V9.35392Z" fill="#EB008B"/>
</svg>
