<svg width="346" height="48" viewBox="0 0 346 48" fill="none" xmlns="http://www.w3.org/2000/svg">
<path d="M1.5 44C6.66667 45.5 20.7 46.7 35.5 39.5C54 30.5 66 38.5 73.5 39.5C81 40.5 88.5 43.5001 101.5 34.0001C114.5 24.5001 126 22.0001 141 30.0001C156 38.0001 151.5 44.5001 170 34.5001C188.5 24.5001 178.5 13.0001 203 5.00009C227.5 -2.99991 243 14.5001 247 20.0001C251 25.5001 258.5 38.5 273 37.5C287.5 36.5 296.5 17.5 301 14.5C307.499 10.1677 323.5 3.5 345 15" stroke="rgba(216, 60, 152, 1)" stroke-width="4"/>
</svg>
