<svg xmlns="http://www.w3.org/2000/svg" xmlns:xlink="http://www.w3.org/1999/xlink" width="24" height="24" preserveAspectRatio="xMidYMid meet" viewBox="0 0 24 24" style="-ms-transform: rotate(360deg); -webkit-transform: rotate(360deg); transform: rotate(360deg);"><path class="uim-quaternary" d="M6 23H2a1 1 0 0 1-1-1v-6a1 1 0 0 1 1-1h4a1 1 0 0 1 1 1v6a1 1 0 0 1-1 1z" opacity=".25" fill="#EB008B"/><path class="uim-tertiary" d="M14 23h-4a1 1 0 0 1-1-1V10a1 1 0 0 1 1-1h4a1 1 0 0 1 1 1v12a1 1 0 0 1-1 1z" opacity=".5" fill="#EB008B"/><path class="uim-primary" d="M22 23h-4a1 1 0 0 1-1-1V2a1 1 0 0 1 1-1h4a1 1 0 0 1 1 1v20a1 1 0 0 1-1 1z" fill="#EB008B"/><rect x="0" y="0" width="24" height="24" fill="rgba(0, 0, 0, 0)" /></svg>
