<svg width="350" height="146" viewBox="0 0 350 146" fill="none" xmlns="http://www.w3.org/2000/svg">
<path d="M1 103.5C11.5 106.5 23.5 91.4994 41 129.5C49 150 78 146.5 84 126.5C91 99 95 75 126 87.5C139 94.4995 140.904 109.85 145.5 119.5C150.5 130 156.091 140.09 170 138.5C187.5 136.5 182.5 92 189 52C195 23.9994 203.582 -1.47281 231 2.50066C265.5 7.50052 261.5 61.5007 263 91.0007C262.833 106.001 265.935 130.37 286.5 128.5C308.5 126.5 308.5 78.5005 312 66.5005C312.667 59.0005 321.5 43.0005 334.5 46.5005C344.5 49.1928 349.333 66.3338 346.5 75.0005" stroke="white" stroke-width="4"/>
</svg>
