<?xml version="1.0" encoding="iso-8859-1"?>
<!-- Generator: Adobe Illustrator 16.0.0, SVG Export Plug-In . SVG Version: 6.00 Build 0)  -->
<!DOCTYPE svg PUBLIC "-//W3C//DTD SVG 1.1//EN" "http://www.w3.org/Graphics/SVG/1.1/DTD/svg11.dtd">
<svg version="1.1" id="Capa_1" xmlns="http://www.w3.org/2000/svg" xmlns:xlink="http://www.w3.org/1999/xlink" x="0px" y="0px"
	 width="176.104px" height="176.104px" viewBox="0 0 176.104 176.104" style="enable-background:new 0 0 176.104 176.104;"
	 xml:space="preserve" fill="#484848">
<g>
	<g>
		<path d="M150.383,18.301c-7.13-3.928-15.308-6.187-24.033-6.187c-15.394,0-29.18,7.015-38.283,18.015
			c-9.146-11-22.919-18.015-38.334-18.015c-8.704,0-16.867,2.259-24.013,6.187C10.388,26.792,0,43.117,0,61.878
			C0,67.249,0.874,72.4,2.457,77.219c8.537,38.374,85.61,86.771,85.61,86.771s77.022-48.396,85.571-86.771
			c1.583-4.819,2.466-9.977,2.466-15.341C176.104,43.124,165.716,26.804,150.383,18.301z"/>
	</g>
</g>
<g>
</g>
<g>
</g>
<g>
</g>
<g>
</g>
<g>
</g>
<g>
</g>
<g>
</g>
<g>
</g>
<g>
</g>
<g>
</g>
<g>
</g>
<g>
</g>
<g>
</g>
<g>
</g>
<g>
</g>
</svg>
