<svg xmlns="http://www.w3.org/2000/svg" xmlns:xlink="http://www.w3.org/1999/xlink" width="24" height="24" preserveAspectRatio="xMidYMid meet" viewBox="0 0 24 24" style="-ms-transform: rotate(360deg); -webkit-transform: rotate(360deg); transform: rotate(360deg);"><g fill="none"><path d="M21 5.75A2.75 2.75 0 0 0 18.25 3H5.75A2.75 2.75 0 0 0 3 5.75v12.5A2.75 2.75 0 0 0 5.75 21h12.5A2.75 2.75 0 0 0 21 18.25V5.75zm-6.75 5.75a.75.75 0 0 1 .102 1.493L14.25 13h-7.5a.75.75 0 0 1-.102-1.493l.102-.007h7.5zm-7.5 4h10.5a.75.75 0 0 1 .102 1.493L17.25 17H6.75a.75.75 0 0 1-.102-1.493l.102-.007zm10.5-8a.75.75 0 0 1 .102 1.493L17.25 9H6.75a.75.75 0 0 1-.102-1.493L6.75 7.5h10.5z" fill="currentColor"/></g><rect x="0" y="0" width="24" height="24" fill="rgba(0, 0, 0, 0)" /></svg>
