<svg xmlns="http://www.w3.org/2000/svg" xmlns:xlink="http://www.w3.org/1999/xlink" width="512" height="512" preserveAspectRatio="xMidYMid meet" viewBox="0 0 512 512" style="-ms-transform: rotate(360deg); -webkit-transform: rotate(360deg); transform: rotate(360deg);"><path d="M160 256a16 16 0 0 1 16-16h144V136c0-32-33.79-56-64-56H104a56.06 56.06 0 0 0-56 56v240a56.06 56.06 0 0 0 56 56h160a56.06 56.06 0 0 0 56-56V272H176a16 16 0 0 1-16-16z" fill="currentColor"/><path d="M459.31 244.69l-80-80a16 16 0 0 0-22.62 22.62L409.37 240H320v32h89.37l-52.68 52.69a16 16 0 1 0 22.62 22.62l80-80a16 16 0 0 0 0-22.62z" fill="currentColor"/><rect x="0" y="0" width="512" height="512" fill="rgba(0, 0, 0, 0)" /></svg>
