<svg xmlns="http://www.w3.org/2000/svg" xmlns:xlink="http://www.w3.org/1999/xlink" width="24" height="24" preserveAspectRatio="xMidYMid meet" viewBox="0 0 24 24" style="-ms-transform: rotate(360deg); -webkit-transform: rotate(360deg); transform: rotate(360deg);"><g fill="none"><path d="M3.5 14l10 .001a1.5 1.5 0 0 1 1.493 1.356L15 15.5V17.5C14.999 21 11.284 22 8.5 22c-2.722 0-6.335-.956-6.495-4.27L2 17.5v-2a1.5 1.5 0 0 1 1.356-1.493L3.5 14zm11.988 0H20.5a1.5 1.5 0 0 1 1.493 1.355L22 15.5V17c-.001 3.062-2.858 4-5 4a7.16 7.16 0 0 1-2.14-.322c.653-.75 1.076-1.703 1.133-2.898L16 17.5v-2c0-.494-.15-.951-.399-1.338L15.488 14H20.5h-5.012zM8.5 3a4.5 4.5 0 1 1 0 9a4.5 4.5 0 0 1 0-9zm9 2a3.5 3.5 0 1 1 0 7a3.5 3.5 0 0 1 0-7z" fill="currentColor"/></g><rect x="0" y="0" width="24" height="24" fill="rgba(0, 0, 0, 0)" /></svg>
