<svg width="20" height="20" viewBox="0 0 20 20" fill="none" xmlns="http://www.w3.org/2000/svg">
<path fill-rule="evenodd" clip-rule="evenodd" d="M13 17H19C19.5523 17 20 16.5523 20 16C20 15.4477 19.5523 15 19 15H17V6H16.9291C16.4439 2.60773 13.5265 0 10 0C6.47351 0 3.55609 2.60773 3.07086 6H3V15H1C0.447693 15 0 15.4477 0 16C0 16.5523 0.447693 17 1 17H7C7 18.6569 8.34314 20 10 20C11.6569 20 13 18.6569 13 17ZM14.9 6C14.4367 3.71777 12.4189 2 10 2C7.58105 2 5.56329 3.71777 5.10004 6H5V15H15V6H14.9Z" fill="currentColor"/>
</svg>
