<svg width="22" height="22" viewBox="0 0 22 22" fill="none" xmlns="http://www.w3.org/2000/svg">
<path fill-rule="evenodd" clip-rule="evenodd" d="M14.6666 11C14.6666 11.9725 14.2803 12.9051 13.5927 13.5927C12.9051 14.2804 11.9724 14.6667 11 14.6667C10.0275 14.6667 9.09489 14.2804 8.40725 13.5927C7.71962 12.9051 7.33331 11.9725 7.33331 11C7.33331 10.0275 7.71962 9.0949 8.40725 8.40727C9.09489 7.71964 10.0275 7.33333 11 7.33333C11.9724 7.33333 12.9051 7.71964 13.5927 8.40727C14.2803 9.0949 14.6666 10.0275 14.6666 11V11ZM13.2916 11C13.2916 11.6078 13.0502 12.1907 12.6204 12.6204C12.1907 13.0502 11.6078 13.2917 11 13.2917C10.3922 13.2917 9.8093 13.0502 9.37953 12.6204C8.94976 12.1907 8.70831 11.6078 8.70831 11C8.70831 10.3922 8.94976 9.80931 9.37953 9.37954C9.8093 8.94977 10.3922 8.70833 11 8.70833C11.6078 8.70833 12.1907 8.94977 12.6204 9.37954C13.0502 9.80931 13.2916 10.3922 13.2916 11Z" fill="currentColor"/>
<path fill-rule="evenodd" clip-rule="evenodd" d="M11 0.916674C10.7543 0.916674 10.5105 0.925841 10.2694 0.942341C9.57001 0.992757 9.03651 1.50792 8.88343 2.13767L8.56076 3.46684C8.54243 3.53834 8.47826 3.62451 8.35451 3.66851C8.12787 3.75066 7.90518 3.84334 7.68718 3.94626C7.56801 4.00126 7.46168 3.98659 7.39843 3.94809L6.2306 3.23676C5.67693 2.89942 4.93626 2.91226 4.40643 3.37151C4.03701 3.69051 3.69143 4.03701 3.37151 4.40551C2.91318 4.93626 2.89943 5.67692 3.23676 6.22967L3.9481 7.39842C3.9866 7.46167 4.00218 7.56801 3.94626 7.68717C3.8436 7.90442 3.75101 8.12718 3.66943 8.35451C3.6236 8.47826 3.53835 8.54334 3.46685 8.56076L2.13768 8.88343C1.50793 9.03651 0.992762 9.57001 0.942346 10.2694C0.907483 10.7559 0.907483 11.2442 0.942346 11.7306C0.992762 12.43 1.50793 12.9635 2.13768 13.1166L3.46685 13.4393C3.53835 13.4576 3.62451 13.5218 3.66851 13.6455C3.75101 13.8728 3.8436 14.0956 3.94626 14.3138C4.00126 14.432 3.9866 14.5383 3.9481 14.6016L3.23676 15.7694C2.89943 16.3231 2.91226 17.0638 3.37151 17.5936C3.69051 17.963 4.03701 18.3086 4.40551 18.6285C4.93626 19.0868 5.67693 19.1006 6.22968 18.7633L7.39843 18.0519C7.46168 18.0134 7.56801 17.9978 7.68718 18.0538C7.90443 18.1564 8.12718 18.249 8.35451 18.3306C8.47826 18.3764 8.54335 18.4617 8.56076 18.5332L8.88343 19.8623C9.03651 20.4921 9.57001 21.0073 10.2694 21.0568C10.7559 21.0917 11.2442 21.0917 11.7306 21.0568C12.43 21.0073 12.9635 20.4921 13.1166 19.8623L13.4393 18.5332C13.4576 18.4617 13.5218 18.3755 13.6455 18.3315C13.8728 18.249 14.0956 18.1564 14.3138 18.0538C14.432 17.9988 14.5383 18.0134 14.6016 18.0519L15.7694 18.7633C16.3231 19.1006 17.0638 19.0878 17.5936 18.6285C17.963 18.3095 18.3086 17.963 18.6285 17.5945C19.0868 17.0638 19.1006 16.3231 18.7633 15.7703L18.0519 14.6016C18.0134 14.5383 17.9978 14.432 18.0538 14.3128C18.1564 14.0956 18.249 13.8728 18.3306 13.6455C18.3764 13.5218 18.4617 13.4567 18.5332 13.4393L19.8623 13.1166C20.4921 12.9635 21.0073 12.43 21.0568 11.7306C21.0917 11.2442 21.0917 10.7559 21.0568 10.2694C21.0073 9.57001 20.4921 9.03651 19.8623 8.88343L18.5332 8.56076C18.4617 8.54242 18.3755 8.47826 18.3315 8.35451C18.2493 8.12787 18.1567 7.90519 18.0538 7.68717C17.9988 7.56801 18.0134 7.46167 18.0519 7.39842L18.7633 6.23059C19.1006 5.67692 19.0878 4.93626 18.6285 4.40642C18.3095 4.03701 17.963 3.69142 17.5945 3.37151C17.0638 2.91317 16.3231 2.89942 15.7703 3.23676L14.6016 3.94809C14.5383 3.98659 14.432 4.00217 14.3128 3.94626C14.0948 3.84367 13.8721 3.75129 13.6455 3.66942C13.5218 3.62359 13.4567 3.53834 13.4393 3.46684L13.1166 2.13767C12.9635 1.50792 12.43 0.992757 11.7306 0.942341C11.4875 0.925075 11.2438 0.916514 11 0.916674V0.916674ZM10.3675 2.31459C10.7886 2.2844 11.2114 2.2844 11.6325 2.31459C11.6829 2.31826 11.7563 2.36042 11.781 2.46126L12.1028 3.79042C12.243 4.36609 12.6766 4.78042 13.178 4.96192C13.3659 5.02976 13.5493 5.10584 13.728 5.19017C13.9778 5.31098 14.2536 5.36802 14.5308 5.35618C14.8081 5.34435 15.078 5.264 15.3166 5.12234L16.4853 4.41101C16.5743 4.35601 16.6558 4.37801 16.6943 4.41101C17.0133 4.68784 17.3122 4.98667 17.589 5.30567C17.622 5.34417 17.644 5.42484 17.589 5.51467L16.8777 6.68251C16.7359 6.9212 16.6554 7.19133 16.6436 7.46872C16.6318 7.74611 16.6889 8.0221 16.8098 8.27201C16.8942 8.45076 16.9703 8.63409 17.0372 8.82201C17.2187 9.32342 17.6348 9.75701 18.2087 9.89634L19.5378 10.2199C19.6396 10.2438 19.6818 10.3171 19.6854 10.3675C19.7156 10.7886 19.7156 11.2114 19.6854 11.6325C19.6818 11.6829 19.6396 11.7563 19.5388 11.781L18.2096 12.1028C17.9407 12.1713 17.693 12.3054 17.4886 12.493C17.2842 12.6807 17.1294 12.916 17.0381 13.178C16.9704 13.3648 16.8939 13.5484 16.8089 13.728C16.6883 13.9779 16.6314 14.2537 16.6434 14.531C16.6554 14.8082 16.7359 15.0781 16.8777 15.3166L17.589 16.4853C17.644 16.5743 17.622 16.6558 17.589 16.6943C17.3127 17.0137 17.0137 17.3127 16.6943 17.589C16.6558 17.622 16.5752 17.644 16.4853 17.589L15.3166 16.8777C15.078 16.736 14.8081 16.6557 14.5308 16.6438C14.2536 16.632 13.9778 16.689 13.728 16.8098C13.5483 16.8942 13.3648 16.97 13.178 17.0372C12.9162 17.1286 12.681 17.2834 12.4936 17.4879C12.3061 17.6923 12.1722 17.9399 12.1037 18.2087L11.7801 19.5378C11.7563 19.6396 11.6829 19.6818 11.6325 19.6854C11.2114 19.7156 10.7886 19.7156 10.3675 19.6854C10.3171 19.6818 10.2438 19.6396 10.219 19.5388L9.89726 18.2096C9.8287 17.9407 9.69462 17.693 9.50699 17.4886C9.31937 17.2842 9.08403 17.1294 8.82201 17.0381C8.63519 16.9703 8.45166 16.8939 8.27201 16.8089C8.02203 16.6881 7.74599 16.6311 7.4686 16.6431C7.19121 16.6551 6.92112 16.7357 6.68251 16.8777L5.51468 17.589C5.42576 17.644 5.34418 17.622 5.30568 17.589C4.98629 17.3127 4.68729 17.0137 4.41101 16.6943C4.37801 16.6558 4.35601 16.5752 4.41101 16.4853L5.12235 15.3166C5.26401 15.078 5.34435 14.8081 5.35619 14.5308C5.36802 14.2536 5.31099 13.9778 5.19018 13.728C5.10556 13.5483 5.0294 13.3648 4.96193 13.178C4.87058 12.9163 4.71589 12.6812 4.51165 12.4937C4.3074 12.3063 4.05995 12.1723 3.79135 12.1037L2.46218 11.7801C2.36043 11.7563 2.31826 11.6829 2.3146 11.6325C2.2844 11.2114 2.2844 10.7886 2.3146 10.3675C2.31826 10.3171 2.36043 10.2438 2.46126 10.219L3.79043 9.89726C4.0593 9.8287 4.30701 9.69462 4.51143 9.50699C4.71585 9.31936 4.87062 9.08403 4.96193 8.82201C5.0294 8.63522 5.10556 8.45168 5.19018 8.27201C5.31115 8.0221 5.36827 7.74611 5.35643 7.46872C5.34459 7.19133 5.26417 6.9212 5.12235 6.68251L4.41101 5.51467C4.35601 5.42576 4.37801 5.34417 4.41101 5.30567C4.68785 4.98667 4.98668 4.68784 5.30568 4.41101C5.34418 4.37801 5.42485 4.35601 5.51468 4.41101L6.68251 5.12234C6.9212 5.26416 7.19133 5.34459 7.46872 5.35643C7.74611 5.36827 8.02211 5.31114 8.27201 5.19017C8.45169 5.10556 8.63522 5.02939 8.82201 4.96192C9.08376 4.87058 9.31883 4.71589 9.50628 4.51164C9.69373 4.3074 9.82774 4.05994 9.89635 3.79134L10.2199 2.46217C10.2438 2.36042 10.3171 2.31826 10.3675 2.31459V2.31459Z" fill="currentColor"/>
</svg>
