<svg width="14" height="14" viewBox="0 0 14 14" fill="none" xmlns="http://www.w3.org/2000/svg">
<path fill-rule="evenodd" clip-rule="evenodd" d="M14 14H7C3.134 14 0 10.866 0 7C0 3.134 3.134 0 7 0C10.866 0 14 3.134 14 7V14ZM7 12C4.23859 12 2 9.76141 2 7C2 4.23859 4.23859 2 7 2C9.76141 2 12 4.23859 12 7V12H7Z" fill="currentColor"/>
<path d="M4 5C4 4.44772 4.44772 4 5 4H8C8.55228 4 9 4.44772 9 5C9 5.55228 8.55228 6 8 6H5C4.44772 6 4 5.55228 4 5Z" fill="currentColor"/>
<path d="M5 9C5 8.44772 5.44772 8 6 8H8C8.55228 8 9 8.44772 9 9C9 9.55228 8.55228 10 8 10H6C5.44772 10 5 9.55228 5 9Z" fill="currentColor"/>
</svg>
