<svg width="22" height="22" viewBox="0 0 22 22" fill="none" xmlns="http://www.w3.org/2000/svg">
<path fill-rule="evenodd" clip-rule="evenodd" d="M11.4783 10.5217V0.0472306C11.7929 0.0159965 12.1119 0 12.4348 0C17.7175 0 22 4.28248 22 9.56522C22 9.88805 21.984 10.2071 21.9528 10.5217H11.4783ZM13.3913 8.6087V1.97224C16.8527 2.40387 19.5962 5.14732 20.0278 8.6087H13.3913Z" fill="currentColor"/>
<path fill-rule="evenodd" clip-rule="evenodd" d="M10.5217 2.91679C10.2071 2.88556 9.88804 2.86957 9.56522 2.86957C4.28249 2.86957 0 7.15206 0 12.4348C0 17.7175 4.28249 22 9.56522 22C14.8479 22 19.1304 17.7175 19.1304 12.4348C19.1304 12.112 19.1144 11.7929 19.0832 11.4783H17.0705L10.5218 11.4783V3.82609H10.5217V2.91679ZM8.60871 11.4783V4.92946C4.88213 5.39963 2 8.58063 2 12.4348C2 16.6129 5.38706 20 9.56522 20C13.4194 20 16.6004 17.1179 17.0705 13.3913L8.60871 13.3913V11.4783Z" fill="currentColor"/>
</svg>
