<svg width="24" height="24" viewBox="0 0 24 24" fill="none" xmlns="http://www.w3.org/2000/svg">
<path d="M16.9706 12.7924C17.4906 12.3921 17.4906 11.6079 16.9706 11.2076L10.61 6.31117C9.95242 5.80497 9 6.27374 9 7.10358V16.8964C9 17.7263 9.95242 18.195 10.61 17.6888L16.9706 12.7924Z" fill="currentColor"/>
<path fill-rule="evenodd" clip-rule="evenodd" d="M0 2C0 0.89543 0.895416 0 2 0H22C23.1046 0 24 0.895431 24 2V22C24 23.1046 23.1046 24 22 24H2C0.895416 24 0 23.1046 0 22V2ZM2 1H22C22.5523 1 23 1.44771 23 2V22C23 22.5523 22.5523 23 22 23H2C1.44772 23 1 22.5523 1 22V2C1 1.44771 1.44772 1 2 1Z" fill="currentColor"/>
</svg>
