<svg width="14" height="14" viewBox="0 0 14 14" fill="none" xmlns="http://www.w3.org/2000/svg">
<path d="M7 12C9.20914 12 11 10.2091 11 8C11 5.79086 9.20914 4 7 4V8H3C3 10.2091 4.79086 12 7 12Z" fill="currentColor"/>
<path fill-rule="evenodd" clip-rule="evenodd" d="M5 0V1H6V2.08296C5.1543 2.22484 4.36858 2.54364 3.68221 3H2V4.68221C1.36816 5.63251 1 6.77327 1 8C1 11.3137 3.68629 14 7 14C10.3137 14 13 11.3137 13 8C13 6.77327 12.6318 5.63251 12 4.68221V3H10.3178C9.63142 2.54364 8.8457 2.22484 8 2.08296V1H9V0H5ZM10 3.99963C9.16434 3.37195 8.1256 3 7 3C5.8744 3 4.83566 3.37195 4 3.99963V5H2.99963C2.37195 5.83566 2 6.87439 2 8C2 10.7614 4.23858 13 7 13C9.76142 13 12 10.7614 12 8C12 6.87439 11.6281 5.83566 11.0004 5H10V3.99963Z" fill="currentColor"/>
</svg>
