<svg xmlns="http://www.w3.org/2000/svg" xmlns:xlink="http://www.w3.org/1999/xlink" aria-hidden="true" focusable="false" width="1em" height="1em" style="-ms-transform: rotate(360deg); -webkit-transform: rotate(360deg); transform: rotate(360deg);" preserveAspectRatio="xMidYMid meet" viewBox="0 0 24 24"><g fill="none"><path d="M15 17h5l-1.405-1.405A2.032 2.032 0 0 1 18 14.158V11a6.002 6.002 0 0 0-4-5.659V5a2 2 0 1 0-4 0v.341C7.67 6.165 6 8.388 6 11v3.159c0 .538-.214 1.055-.595 1.436L4 17h5m6 0v1a3 3 0 1 1-6 0v-1m6 0H9" stroke="currentColor" stroke-width="2" stroke-linecap="round" stroke-linejoin="round"/></g></svg>
