<svg width="16" height="16" viewBox="0 0 16 16" fill="none" xmlns="http://www.w3.org/2000/svg">
<path fill-rule="evenodd" clip-rule="evenodd" d="M4 0.5C4 0.367392 3.94732 0.240215 3.85355 0.146447C3.75979 0.0526784 3.63261 0 3.5 0C3.36739 0 3.24021 0.0526784 3.14645 0.146447C3.05268 0.240215 3 0.367392 3 0.5V1H2C1.46957 1 0.960859 1.21071 0.585786 1.58579C0.210714 1.96086 0 2.46957 0 3V14C0 14.5304 0.210714 15.0391 0.585786 15.4142C0.960859 15.7893 1.46957 16 2 16H14C14.5304 16 15.0391 15.7893 15.4142 15.4142C15.7893 15.0391 16 14.5304 16 14V3C16 2.46957 15.7893 1.96086 15.4142 1.58579C15.0391 1.21071 14.5304 1 14 1H13V0.5C13 0.367392 12.9473 0.240215 12.8536 0.146447C12.7598 0.0526784 12.6326 0 12.5 0C12.3674 0 12.2402 0.0526784 12.1464 0.146447C12.0527 0.240215 12 0.367392 12 0.5V1H4V0.5ZM2 3.5C2 3.36739 2.05268 3.24021 2.14645 3.14645C2.24021 3.05268 2.36739 3 2.5 3H13.5C13.6326 3 13.7598 3.05268 13.8536 3.14645C13.9473 3.24021 14 3.36739 14 3.5V4.5C14 4.63261 13.9473 4.75979 13.8536 4.85355C13.7598 4.94732 13.6326 5 13.5 5H2.5C2.36739 5 2.24021 4.94732 2.14645 4.85355C2.05268 4.75979 2 4.13261 2 4V3.5ZM9.336 12.54C8.226 12.54 7.68 11.773 7.633 11.133H8.316C8.359 11.503 8.703 11.953 9.367 11.953C10.211 11.953 10.668 11.105 10.672 9.789H10.645C10.492 10.203 10.008 10.579 9.262 10.579C8.41 10.579 7.586 9.969 7.586 8.809C7.586 7.672 8.457 7 9.383 7C10.555 7 11.336 7.734 11.336 9.668C11.336 11.473 10.594 12.539 9.336 12.539V12.54ZM9.402 9.996C10.027 9.996 10.586 9.512 10.586 8.816C10.586 7.984 10.059 7.586 9.426 7.586C8.84 7.586 8.258 7.973 8.258 8.796C8.258 9.613 8.801 9.996 9.402 9.996ZM6.445 7.106V12.438H5.77V7.828H5.758C5.468 7.984 4.875 8.348 4.5 8.605V7.91C4.92084 7.61514 5.35933 7.34631 5.813 7.105L6.445 7.106Z" fill="currentColor"/>
<path d="M2 7H14V14H2V7Z" fill="currentColor"/>
</svg>
