<svg xmlns="http://www.w3.org/2000/svg" xmlns:xlink="http://www.w3.org/1999/xlink" aria-hidden="true" focusable="false" width="1em" height="1em" style="-ms-transform: rotate(360deg); -webkit-transform: rotate(360deg); transform: rotate(360deg);" preserveAspectRatio="xMidYMid meet" viewBox="0 0 20 20"><g fill="none"><path d="M2 5a2 2 0 0 1 2-2h7a2 2 0 0 1 2 2v4a2 2 0 0 1-2 2H9l-3 3v-3H4a2 2 0 0 1-2-2V5z" fill="currentColor"/><path d="M15 7v2a4 4 0 0 1-4 4H9.828l-1.766 1.767c.28.149.599.233.938.233h2l3 3v-3h2a2 2 0 0 0 2-2V9a2 2 0 0 0-2-2h-1z" fill="currentColor"/></g></svg>
