<svg width="240" height="240" viewBox="0 0 240 240" fill="none" xmlns="http://www.w3.org/2000/svg">
<path fill-rule="evenodd" clip-rule="evenodd" d="M122.109 69.9375H206.25C210.398 69.9375 213.75 73.2891 213.75 77.4375V189.375C213.75 193.523 210.398 196.875 206.25 196.875H33.75C29.6016 196.875 26.25 193.523 26.25 189.375V50.625C26.25 46.4766 29.6016 43.125 33.75 43.125H93.3281C93.8073 43.1291 94.2674 43.3131 94.6172 43.6406L122.109 69.9375ZM122.21 99.5403C121.624 98.9542 120.829 98.625 120 98.625C119.171 98.625 118.376 98.9542 117.79 99.5403C117.204 100.126 116.875 100.921 116.875 101.75V156.704L103.463 143.287C103.172 142.996 102.828 142.765 102.448 142.608C102.068 142.45 101.661 142.369 101.25 142.369C100.839 142.369 100.432 142.45 100.053 142.608C99.6728 142.765 99.328 142.996 99.0377 143.287C98.7467 143.577 98.5158 143.922 98.3583 144.302C98.2007 144.682 98.1196 145.089 98.1196 145.5C98.1196 145.911 98.2007 146.318 98.3583 146.697C98.5158 147.077 98.7467 147.422 99.0377 147.712L117.788 166.462C118.078 166.753 118.423 166.984 118.803 167.142C119.182 167.299 119.589 167.38 120 167.38C120.411 167.38 120.818 167.299 121.198 167.142C121.578 166.984 121.922 166.753 122.213 166.462L140.963 147.712C141.549 147.125 141.879 146.329 141.879 145.5C141.879 144.67 141.549 143.874 140.963 143.287C140.376 142.7 139.58 142.371 138.75 142.371C137.92 142.371 137.124 142.7 136.538 143.287L123.125 156.705V101.75C123.125 100.921 122.796 100.126 122.21 99.5403Z" fill="currentColor"/>
</svg>
