<svg width="484" height="106" viewBox="0 0 484 106" fill="none" xmlns="http://www.w3.org/2000/svg">
<path d="M0.5 74.0001C10 73.5001 29.802 58.0001 40 58.0001C45 58.0001 47.5906 56.0483 66.5 80.0001C81.5 99 82.3881 102 92.5 102C103.5 102 112 90.0001 118.5 74.0001C125 58.0001 150.5 14.0001 178 6.00008C205.5 -1.99992 231 39.5 240 47C249 54.5 261.5 70.0001 292 74.0001C322.5 78 321.5 44 353 52C384.5 60 391.5 89 431 70C471.5 48 480.5 20.8333 479 9.00002" stroke="currentColor" stroke-width="8"/>
</svg>
