<svg width="512" height="512" viewBox="0 0 512 512" fill="currentColor" xmlns="http://www.w3.org/2000/svg">
<path d="M255.6 512C278.275 512 297.63 497.062 304.31 476.541C307.045 468.138 299.637 460.8 290.8 460.8H220.4C211.563 460.8 204.155 468.138 206.89 476.541C213.57 497.062 232.925 512 255.6 512ZM426.686 363.086C423.686 360.086 422 356.016 422 351.773V217.6C422 142.633 374.027 81.372 306.134 59.714C299.093 57.468 294 51.113 294 43.7226V38.4C294 17.92 276.08 0 255.6 0C235.12 0 217.2 17.92 217.2 38.4V43.7226C217.2 51.113 212.107 57.468 205.066 59.714C137.173 81.372 89.2 142.633 89.2 217.6V351.773C89.2 356.016 87.5143 360.086 84.5137 363.086L42.6863 404.914C39.6857 407.914 38 411.984 38 416.227V419.2C38 428.037 45.1634 435.2 54 435.2H457.2C466.037 435.2 473.2 428.037 473.2 419.2V416.227C473.2 411.984 471.514 407.914 468.514 404.914L426.686 363.086Z" fill="currentColor"/>
</svg>
