<svg width="213" height="213" viewBox="0 0 213 213" fill="none" xmlns="http://www.w3.org/2000/svg">
<g clip-path="url(#clip0)">
<path d="M35.9913 204.045H35.994C36.4713 204.045 37.7414 203.802 39.515 202.287L39.5241 202.279L39.5332 202.272L94.5593 155.552C94.5629 155.549 94.5665 155.546 94.5701 155.543C97.9204 152.686 102.282 151.351 106.436 151.351C110.598 151.351 114.953 152.691 118.303 155.549L118.311 155.555M35.9913 204.045L113.116 161.639L118.311 155.555M35.9913 204.045C35.5465 204.045 35.1943 203.853 34.9602 203.518C34.4894 202.842 34.022 201.738 34.022 200V18C34.022 13.0408 38.8489 8 44.84 8H167.871C173.484 8 178.022 12.6725 178.022 18V200.001C178.022 202.655 177.294 203.599 177.128 203.782C176.972 203.955 176.804 204.046 176.488 204.046C176.15 204.046 175.09 203.918 173.17 202.278L173.163 202.273L118.311 155.555M35.9913 204.045L118.311 155.555" stroke="currentColor" stroke-width="16"/>
</g>
<defs>
<clipPath id="clip0">
<rect width="212.045" height="212.045"/>
</clipPath>
</defs>
</svg>
