<svg width="512" height="512" viewBox="0 0 512 512" fill="currentColor" xmlns="http://www.w3.org/2000/svg">
<path d="M0 104C0 86.3269 14.3269 72 32 72H239.074V440H32C14.3269 440 0 425.673 0 408V104Z" fill="currentColor"/>
<path fill-rule="evenodd" clip-rule="evenodd" d="M480 72H272.926V440H480C497.673 440 512 425.673 512 408V104C512 86.3269 497.673 72 480 72ZM314.777 136C310.359 136 306.777 139.582 306.777 144V176C306.777 180.418 310.359 184 314.777 184H470.149C474.567 184 478.149 180.418 478.149 176V144C478.149 139.582 474.567 136 470.149 136H314.777ZM306.777 240C306.777 235.582 310.359 232 314.777 232H470.149C474.567 232 478.149 235.582 478.149 240V272C478.149 276.418 474.567 280 470.149 280H314.777C310.359 280 306.777 276.418 306.777 272V240ZM314.777 328C310.359 328 306.777 331.582 306.777 336V368C306.777 372.418 310.359 376 314.777 376H470.149C474.567 376 478.149 372.418 478.149 368V336C478.149 331.582 474.567 328 470.149 328H314.777Z" fill="currentColor"/>
</svg>
