<svg width="512" height="512" viewBox="0 0 512 512" fill="currentColor" xmlns="http://www.w3.org/2000/svg">
<path d="M436 0C411.186 0 391 20.186 391 45C391 55.065 394.439 64.272 400.044 71.776L326.652 151.412C323.22 150.571 319.688 150 316 150C306.788 150 298.23 152.802 291.09 157.57L238.755 118.33C240.083 114.091 241 109.671 241 105C241 80.186 220.814 60 196 60C171.186 60 151 80.186 151 105C151 109.671 151.917 114.091 153.245 118.33L100.91 157.57C93.77 152.802 85.212 150 76 150C51.186 150 31 170.186 31 195C31 219.814 51.186 240 76 240C100.814 240 121 219.814 121 195C121 190.329 120.083 185.909 118.755 181.67L171.09 142.43C178.229 147.198 186.788 150 196 150C205.212 150 213.77 147.198 220.91 142.43L273.245 181.67C271.917 185.909 271 190.329 271 195C271 219.814 291.186 240 316 240C340.814 240 361 219.814 361 195C361 184.935 357.561 175.728 351.956 168.224L425.348 88.588C428.78 89.429 432.312 90 436 90C460.814 90 481 69.814 481 45C481 20.186 460.814 0 436 0Z" fill="currentColor"/>
<path d="M226 253.235H166C157.709 253.235 151 261.424 151 271.544V512H241V271.544C241 261.424 234.291 253.235 226 253.235Z" fill="currentColor"/>
<path d="M346 326.471H286C277.709 326.471 271 334.66 271 344.779V512H361V344.779C361 334.66 354.291 326.471 346 326.471Z" fill="currentColor"/>
<path d="M466 180H406C397.709 180 391 188.189 391 198.309V512H481V198.309C481 188.189 474.291 180 466 180Z" fill="currentColor"/>
<path d="M106 363.088H46C37.709 363.088 31 371.277 31 381.397V512H121V381.397C121 371.277 114.291 363.088 106 363.088Z" fill="currentColor"/>
</svg>
