<svg width="512" height="512" viewBox="0 0 512 512" fill="currentColor" xmlns="http://www.w3.org/2000/svg">
<path d="M477.373 197.611L448.523 193.485C445.231 183.39 441.14 173.58 436.331 164.203C436.331 164.203 444.182 153.744 453.855 140.845C463.54 127.947 463.233 104.452 450.996 90.0848C442.098 79.6588 432.378 69.9407 421.93 61.0524C407.551 48.8154 384.068 48.5196 371.192 58.1929L347.857 75.7172C338.48 70.9653 328.704 66.8639 318.529 63.525C318.529 63.525 316.706 50.604 314.461 34.6749C312.217 18.7345 298.408 3.07872 283.367 1.47236C274.378 0.503768 265.263 0.00195312 256.034 0.00195312C246.794 0.00195312 237.689 0.503768 228.723 1.45974C213.693 3.07732 199.872 18.7331 197.606 34.6735L193.516 63.5236C183.363 66.8625 173.599 70.9639 164.143 75.7158C164.143 75.7158 153.717 67.8774 140.842 58.1915C127.978 48.5182 104.518 48.8252 90.1389 61.051C79.6905 69.9379 69.971 79.6574 61.0841 90.0834C48.8359 104.451 48.5387 127.945 58.2134 140.844L75.7138 164.202C70.8821 173.58 66.8606 183.401 63.5455 193.484C63.5455 193.484 50.6245 195.33 34.7079 197.609C18.79 199.877 3.1006 213.663 1.49423 228.681C0.490601 237.66 0 246.776 0 255.959C0 265.222 0.490601 274.325 1.44657 283.292C3.05294 298.332 18.7536 312.165 34.6715 314.431L63.509 318.544C66.8241 328.719 70.8583 338.437 75.6774 347.894C75.6774 347.894 67.839 358.332 58.1769 371.218C48.5037 384.092 48.7994 407.564 61.0364 421.943C69.9233 432.38 79.6428 442.098 90.0912 450.987C104.47 463.212 127.942 463.497 140.805 453.801L164.106 436.277C173.564 441.074 183.339 445.153 193.479 448.492C193.479 448.492 195.314 461.413 197.569 477.342C199.825 493.26 213.646 508.983 228.686 510.578C237.653 511.524 246.768 511.991 255.997 511.991C265.237 511.991 274.341 511.524 283.331 510.567C298.371 508.983 312.181 493.26 314.425 477.342L318.493 448.492C328.679 445.153 338.443 441.074 347.821 436.277C347.821 436.277 358.269 444.115 371.155 453.801C384.03 463.497 407.524 463.224 421.905 450.998C432.353 442.1 442.072 432.38 450.959 421.943C463.196 407.564 463.505 384.092 453.819 371.218L436.295 347.894C441.102 338.437 445.193 328.706 448.487 318.544C448.487 318.544 461.408 316.698 477.337 314.431C493.266 312.163 508.955 298.331 510.562 283.292C511.508 274.325 511.997 265.21 511.997 255.959C511.997 246.763 511.507 237.672 510.551 228.681C508.981 213.687 493.302 199.877 477.373 197.611ZM256.022 369.945C193.094 369.945 142.082 318.922 142.082 256.005C142.082 193.087 193.094 142.065 256.022 142.065C318.94 142.065 369.963 193.087 369.963 256.005C369.963 318.922 318.94 369.945 256.022 369.945Z" fill="currentColor"/>
</svg>
