<svg width="256" height="256" viewBox="0 0 256 256" fill="none" xmlns="http://www.w3.org/2000/svg">
<path d="M192 85.3334C192 68.3595 185.257 52.0809 173.255 40.0785C161.253 28.0762 144.974 21.3334 128 21.3334C111.026 21.3334 94.7475 28.0762 82.7452 40.0785C70.7428 52.0809 64 68.3595 64 85.3334C64 160 32 181.333 32 181.333H224C224 181.333 192 160 192 85.3334Z" stroke="currentColor" stroke-width="16" stroke-linecap="round" stroke-linejoin="round"/>
<path d="M146.453 224C144.578 227.233 141.886 229.916 138.648 231.782C135.409 233.647 131.737 234.629 128 234.629C124.263 234.629 120.591 233.647 117.352 231.782C114.114 229.916 111.422 227.233 109.547 224" stroke="currentColor" stroke-width="16" stroke-linecap="round" stroke-linejoin="round"/>
</svg>
