<svg width="256" height="256" viewBox="0 0 256 256" fill="none" xmlns="http://www.w3.org/2000/svg">
<path d="M48.1067 165.12L69.44 148.16C74.56 144.107 77.5467 137.92 77.5467 131.413V103.68C109.76 93.2267 144.64 93.12 176.96 103.68V131.52C176.96 138.027 179.947 144.213 185.067 148.267L206.293 165.12C214.827 171.84 226.987 171.2 234.667 163.52L247.68 150.507C256.213 141.973 256.213 127.787 247.147 119.787C178.773 59.4133 75.7333 59.4133 7.36 119.787C-1.70666 127.787 -1.70666 141.973 6.82667 150.507L19.84 163.52C27.4133 171.2 39.5733 171.84 48.1067 165.12V165.12Z" fill="currentColor"/>
</svg>
