<svg width="256" height="256" viewBox="0 0 256 256" fill="none" xmlns="http://www.w3.org/2000/svg">
<path fill-rule="evenodd" clip-rule="evenodd" d="M216 24H165.5V8H216C233.673 8 248 22.3269 248 40V90.5H232V40C232 31.1634 224.837 24 216 24ZM24 90.5V40C24 31.1634 31.1634 24 40 24H90.5V8H40C22.3269 8 8 22.3269 8 40V90.5H24ZM8 165.5H24V216C24 224.837 31.1634 232 40 232H90.5V248H40C22.3269 248 8 233.673 8 216L8 165.5ZM232 165.5H248V216C248 233.673 233.673 248 216 248H165.5V232H216C224.837 232 232 224.837 232 216V165.5Z" fill="currentColor"/>
</svg>
