<svg width="637" height="144" viewBox="0 0 637 144" fill="none" xmlns="http://www.w3.org/2000/svg">
<rect x="8" y="10.5913" width="139.478" height="122.203" rx="24" stroke="#65B2A8" stroke-width="16"/>
<path d="M148 45.1331C148 42.0351 149.789 39.2155 152.592 37.8956L194.876 17.9827C200.182 15.4839 206.284 19.3552 206.284 25.2203V117.929C206.284 123.876 200.026 127.744 194.706 125.084L152.422 103.942C149.712 102.587 148 99.817 148 96.7868V45.1331Z" stroke="#65B2A8" stroke-width="16"/>
<circle cx="100.197" cy="71.6927" r="12.0928" fill="#FF8345"/>
<circle cx="54.4174" cy="71.6927" r="12.0928" fill="#FBAEA6"/>
<path d="M304.488 46.744L290.448 97H278.568L269.136 61.216L259.272 97L247.464 97.072L233.928 46.744H244.728L253.584 85.768L263.808 46.744H275.04L284.688 85.552L293.616 46.744H304.488ZM381.97 56.536C386.722 56.536 390.562 58.048 393.49 61.072C396.418 64.048 397.882 68.224 397.882 73.6V97H387.802V74.968C387.802 71.8 387.01 69.376 385.426 67.696C383.842 65.968 381.682 65.104 378.946 65.104C376.162 65.104 373.954 65.968 372.322 67.696C370.738 69.376 369.946 71.8 369.946 74.968V97H359.866V57.112H369.946V62.08C371.29 60.352 372.994 59.008 375.058 58.048C377.17 57.04 379.474 56.536 381.97 56.536ZM423.092 56.464C426.068 56.464 428.684 57.064 430.94 58.264C433.196 59.416 434.972 60.928 436.268 62.8V57.112H446.42V97.288C446.42 100.984 445.676 104.272 444.188 107.152C442.7 110.08 440.468 112.384 437.492 114.064C434.516 115.792 430.916 116.656 426.692 116.656C421.028 116.656 416.372 115.336 412.724 112.696C409.124 110.056 407.084 106.456 406.604 101.896H416.612C417.14 103.72 418.268 105.16 419.996 106.216C421.772 107.32 423.908 107.872 426.404 107.872C429.332 107.872 431.708 106.984 433.532 105.208C435.356 103.48 436.268 100.84 436.268 97.288V91.096C434.972 92.968 433.172 94.528 430.868 95.776C428.612 97.024 426.02 97.648 423.092 97.648C419.732 97.648 416.66 96.784 413.876 95.056C411.092 93.328 408.884 90.904 407.252 87.784C405.668 84.616 404.876 80.992 404.876 76.912C404.876 72.88 405.668 69.304 407.252 66.184C408.884 63.064 411.068 60.664 413.804 58.984C416.588 57.304 419.684 56.464 423.092 56.464ZM436.268 77.056C436.268 74.608 435.788 72.52 434.828 70.792C433.868 69.016 432.572 67.672 430.94 66.76C429.308 65.8 427.556 65.32 425.684 65.32C423.812 65.32 422.084 65.776 420.5 66.688C418.916 67.6 417.62 68.944 416.612 70.72C415.652 72.448 415.172 74.512 415.172 76.912C415.172 79.312 415.652 81.424 416.612 83.248C417.62 85.024 418.916 86.392 420.5 87.352C422.132 88.312 423.86 88.792 425.684 88.792C427.556 88.792 429.308 88.336 430.94 87.424C432.572 86.464 433.868 85.12 434.828 83.392C435.788 81.616 436.268 79.504 436.268 77.056ZM479.881 97L466.345 80.008V97H456.265V43.72H466.345V74.032L479.737 57.112H492.841L475.273 77.128L492.985 97H479.881ZM566.33 56.536C571.082 56.536 574.922 58.048 577.85 61.072C580.778 64.048 582.242 68.224 582.242 73.6V97H572.162V74.968C572.162 71.8 571.37 69.376 569.786 67.696C568.202 65.968 566.042 65.104 563.306 65.104C560.522 65.104 558.314 65.968 556.682 67.696C555.098 69.376 554.306 71.8 554.306 74.968V97H544.226V57.112H554.306V62.08C555.65 60.352 557.354 59.008 559.418 58.048C561.53 57.04 563.834 56.536 566.33 56.536ZM607.451 56.464C610.427 56.464 613.043 57.064 615.299 58.264C617.555 59.416 619.331 60.928 620.627 62.8V57.112H630.779V97.288C630.779 100.984 630.035 104.272 628.547 107.152C627.059 110.08 624.827 112.384 621.851 114.064C618.875 115.792 615.275 116.656 611.051 116.656C605.387 116.656 600.731 115.336 597.083 112.696C593.483 110.056 591.443 106.456 590.963 101.896H600.971C601.499 103.72 602.627 105.16 604.355 106.216C606.131 107.32 608.267 107.872 610.763 107.872C613.691 107.872 616.067 106.984 617.891 105.208C619.715 103.48 620.627 100.84 620.627 97.288V91.096C619.331 92.968 617.531 94.528 615.227 95.776C612.971 97.024 610.379 97.648 607.451 97.648C604.091 97.648 601.019 96.784 598.235 95.056C595.451 93.328 593.243 90.904 591.611 87.784C590.027 84.616 589.235 80.992 589.235 76.912C589.235 72.88 590.027 69.304 591.611 66.184C593.243 63.064 595.427 60.664 598.163 58.984C600.947 57.304 604.043 56.464 607.451 56.464ZM620.627 77.056C620.627 74.608 620.147 72.52 619.187 70.792C618.227 69.016 616.931 67.672 615.299 66.76C613.667 65.8 611.915 65.32 610.043 65.32C608.171 65.32 606.443 65.776 604.859 66.688C603.275 67.6 601.979 68.944 600.971 70.72C600.011 72.448 599.531 74.512 599.531 76.912C599.531 79.312 600.011 81.424 600.971 83.248C601.979 85.024 603.275 86.392 604.859 87.352C606.491 88.312 608.219 88.792 610.043 88.792C611.915 88.792 613.667 88.336 615.299 87.424C616.931 86.464 618.227 85.12 619.187 83.392C620.147 81.616 620.627 79.504 620.627 77.056Z" fill="#65B2A8"/>
<path d="M308.478 76.912C308.478 72.88 309.27 69.304 310.854 66.184C312.486 63.064 314.67 60.664 317.406 58.984C320.19 57.304 323.286 56.464 326.694 56.464C329.67 56.464 332.262 57.064 334.47 58.264C336.726 59.464 338.526 60.976 339.87 62.8V57.112H350.022V97H339.87V91.168C338.574 93.04 336.774 94.6 334.47 95.848C332.214 97.048 329.598 97.648 326.622 97.648C323.262 97.648 320.19 96.784 317.406 95.056C314.67 93.328 312.486 90.904 310.854 87.784C309.27 84.616 308.478 80.992 308.478 76.912ZM339.87 77.056C339.87 74.608 339.39 72.52 338.43 70.792C337.47 69.016 336.174 67.672 334.542 66.76C332.91 65.8 331.158 65.32 329.286 65.32C327.414 65.32 325.686 65.776 324.102 66.688C322.518 67.6 321.222 68.944 320.214 70.72C319.254 72.448 318.774 74.512 318.774 76.912C318.774 79.312 319.254 81.424 320.214 83.248C321.222 85.024 322.518 86.392 324.102 87.352C325.734 88.312 327.462 88.792 329.286 88.792C331.158 88.792 332.91 88.336 334.542 87.424C336.174 86.464 337.47 85.12 338.43 83.392C339.39 81.616 339.87 79.504 339.87 77.056Z" fill="#FBAEA6"/>
<path d="M516.024 97.648C512.184 97.648 508.728 96.808 505.656 95.128C502.584 93.4 500.16 90.976 498.384 87.856C496.656 84.736 495.792 81.136 495.792 77.056C495.792 72.976 496.68 69.376 498.456 66.256C500.28 63.136 502.752 60.736 505.872 59.056C508.992 57.328 512.472 56.464 516.312 56.464C520.152 56.464 523.632 57.328 526.752 59.056C529.872 60.736 532.32 63.136 534.096 66.256C535.92 69.376 536.832 72.976 536.832 77.056C536.832 81.136 535.896 84.736 534.024 87.856C532.2 90.976 529.704 93.4 526.536 95.128C523.416 96.808 519.912 97.648 516.024 97.648ZM516.024 88.864C517.848 88.864 519.552 88.432 521.136 87.568C522.768 86.656 524.064 85.312 525.024 83.536C525.984 81.76 526.464 79.6 526.464 77.056C526.464 73.264 525.456 70.36 523.44 68.344C521.472 66.28 519.048 65.248 516.168 65.248C513.288 65.248 510.864 66.28 508.896 68.344C506.976 70.36 506.016 73.264 506.016 77.056C506.016 80.848 506.952 83.776 508.824 85.84C510.744 87.856 513.144 88.864 516.024 88.864Z" fill="#FF8345"/>
</svg>
