<svg width="256" height="256" viewBox="0 0 256 256" fill="none" xmlns="http://www.w3.org/2000/svg">
<path d="M229.645 219.07L173.02 162.145C186.557 145.811 193.282 124.891 191.798 103.729C190.314 82.567 180.735 62.7899 165.051 48.5055C149.367 34.2212 128.783 26.5275 107.575 27.0225C86.3667 27.5175 66.1643 36.1632 51.1637 51.1637C36.1632 66.1643 27.5175 86.3667 27.0225 107.575C26.5275 128.783 34.2212 149.367 48.5055 165.051C62.7899 180.735 82.567 190.314 103.729 191.798C124.891 193.282 145.811 186.557 162.145 173.02L219.07 229.645L229.645 219.07ZM42.1449 109.645C42.1449 96.2946 46.1037 83.2442 53.5207 72.1439C60.9377 61.0436 71.4797 52.3919 83.8137 47.283C96.1478 42.1741 109.72 40.8374 122.813 43.4419C135.907 46.0464 147.935 52.4751 157.375 61.9152C166.815 71.3552 173.243 83.3826 175.848 96.4763C178.452 109.57 177.116 123.142 172.007 135.476C166.898 147.81 158.246 158.352 147.146 165.769C136.046 173.186 122.995 177.145 109.645 177.145C91.7428 177.145 74.5739 170.033 61.9152 157.375C49.2565 144.716 42.1449 127.547 42.1449 109.645Z" fill="currentColor"/>
</svg>
