<svg width="256" height="256" viewBox="0 0 256 256" fill="none" xmlns="http://www.w3.org/2000/svg">
<path d="M216 134.08V128V121.84L231.36 108.4C234.191 105.904 236.049 102.488 236.606 98.7552C237.162 95.0222 236.381 91.2127 234.4 88L215.52 56C214.117 53.5701 212.1 51.5518 209.671 50.1477C207.242 48.7435 204.486 48.0029 201.68 48C199.941 47.9867 198.212 48.2569 196.56 48.8L177.12 55.36C173.764 53.1297 170.263 51.1252 166.64 49.36L162.56 29.2C161.828 25.5168 159.825 22.2083 156.9 19.8536C153.975 17.4989 150.314 16.2481 146.56 16.32H109.12C105.366 16.2481 101.705 17.4989 98.7804 19.8536C95.8553 22.2083 93.8516 25.5168 93.12 29.2L89.04 49.36C85.3915 51.1248 81.8638 53.1292 78.48 55.36L59.44 48.48C57.7704 48.045 56.0414 47.8829 54.32 48C51.5142 48.0029 48.7585 48.7435 46.3293 50.1477C43.9001 51.5518 41.8829 53.5701 40.48 56L21.6 88C19.7327 91.2079 19.0388 94.9653 19.6372 98.6285C20.2356 102.292 22.089 105.633 24.88 108.08L40 121.92V134.16L24.88 147.6C22.0102 150.064 20.106 153.465 19.5056 157.2C18.9051 160.934 19.6472 164.761 21.6 168L40.48 200C41.8829 202.43 43.9001 204.448 46.3293 205.852C48.7585 207.256 51.5142 207.997 54.32 208C56.0588 208.013 57.7882 207.743 59.44 207.2L78.88 200.64C82.2363 202.87 85.7374 204.875 89.36 206.64L93.44 226.8C94.1716 230.483 96.1753 233.792 99.1004 236.146C102.025 238.501 105.686 239.752 109.44 239.68H147.2C150.954 239.752 154.615 238.501 157.54 236.146C160.465 233.792 162.468 230.483 163.2 226.8L167.28 206.64C170.929 204.875 174.456 202.871 177.84 200.64L197.2 207.2C198.852 207.743 200.581 208.013 202.32 208C205.126 207.997 207.882 207.256 210.311 205.852C212.74 204.448 214.757 202.43 216.16 200L234.4 168C236.267 164.792 236.961 161.035 236.363 157.371C235.764 153.708 233.911 150.367 231.12 147.92L216 134.08ZM201.68 192L174.24 182.72C167.817 188.161 160.475 192.414 152.56 195.28L146.88 224H109.12L103.44 195.6C95.5874 192.653 88.2857 188.407 81.84 183.04L54.32 192L35.44 160L57.2 140.8C55.7208 132.519 55.7208 124.041 57.2 115.76L35.44 96L54.32 64L81.76 73.28C88.1835 67.8391 95.5248 63.586 103.44 60.72L109.12 32H146.88L152.56 60.4C160.413 63.3474 167.714 67.5931 174.16 72.96L201.68 64L220.56 96L198.8 115.2C200.279 123.481 200.279 131.959 198.8 140.24L220.56 160L201.68 192Z" fill="currentColor"/>
<path d="M128 176C118.507 176 109.226 173.185 101.333 167.911C93.4391 162.636 87.2868 155.14 83.6538 146.369C80.0208 137.598 79.0702 127.947 80.9223 118.636C82.7744 109.325 87.346 100.772 94.0589 94.0589C100.772 87.346 109.325 82.7744 118.636 80.9223C127.947 79.0702 137.598 80.0208 146.369 83.6538C155.14 87.2868 162.636 93.4391 167.911 101.333C173.185 109.226 176 118.507 176 128C176.064 134.321 174.866 140.592 172.477 146.444C170.087 152.297 166.554 157.614 162.084 162.084C157.614 166.554 152.297 170.087 146.444 172.477C140.592 174.866 134.321 176.064 128 176ZM128 96C123.771 95.9015 119.566 96.6619 115.639 98.2351C111.712 99.8084 108.145 102.162 105.153 105.153C102.162 108.145 99.8084 111.712 98.2351 115.639C96.6619 119.565 95.9015 123.771 96 128C95.9015 132.229 96.6619 136.435 98.2351 140.361C99.8084 144.288 102.162 147.855 105.153 150.847C108.145 153.838 111.712 156.192 115.639 157.765C119.566 159.338 123.771 160.099 128 160C132.229 160.099 136.435 159.338 140.361 157.765C144.288 156.192 147.855 153.838 150.847 150.847C153.838 147.855 156.192 144.288 157.765 140.361C159.338 136.435 160.099 132.229 160 128C160.099 123.771 159.338 119.565 157.765 115.639C156.192 111.712 153.838 108.145 150.847 105.153C147.855 102.162 144.288 99.8084 140.361 98.2351C136.435 96.6619 132.229 95.9015 128 96Z" fill="currentColor"/>
</svg>
